%FSLAX45Y45*%
G04 Gerber Fmt 4.5, Leading zero omitted, Abs format (unit mm)*
G04 Created by KiCad (PCBNEW (5.1.6)-1) date 2022-10-31 22:29:48*
%MOMM*%
%LPD*%
G01*
G04 APERTURE LIST*
%TA.AperFunction,Profile*%
%ADD10C,0.050000*%
%TD*%
%ADD11C,0.200000*%
%ADD12C,0.300000*%
G04 APERTURE END LIST*
D10*
X13500000Y-2200000D02*
X13300000Y-2000000D01*
X13500000Y-6900000D02*
X13300000Y-7100000D01*
X2000000Y-6900000D02*
X2200000Y-7100000D01*
X2200000Y-2000000D02*
X2000000Y-2200000D01*
X13245000Y-6725000D02*
G75*
G03*
X13245000Y-6725000I-170000J0D01*
G01*
X2495000Y-6725000D02*
G75*
G03*
X2495000Y-6725000I-170000J0D01*
G01*
X2495000Y-2325000D02*
G75*
G03*
X2495000Y-2325000I-170000J0D01*
G01*
X13245000Y-2325000D02*
G75*
G03*
X13245000Y-2325000I-170000J0D01*
G01*
X2200000Y-7100000D02*
X13300000Y-7100000D01*
X13500000Y-2200000D02*
X13500000Y-6900000D01*
X2000000Y-2200000D02*
X2000000Y-6900000D01*
X2200000Y-2000000D02*
X13300000Y-2000000D01*
D11*
X3218500Y-6571300D02*
X3258500Y-6611300D01*
X3258500Y-6571300D02*
X3218500Y-6611300D01*
X3726500Y-6698300D02*
X3766500Y-6738300D01*
X3766500Y-6698300D02*
X3726500Y-6738300D01*
X5123500Y-5110800D02*
X5163500Y-5150800D01*
X5163500Y-5110800D02*
X5123500Y-5150800D01*
X5187000Y-5364800D02*
X5227000Y-5404800D01*
X5227000Y-5364800D02*
X5187000Y-5404800D01*
X5250500Y-5110800D02*
X5290500Y-5150800D01*
X5290500Y-5110800D02*
X5250500Y-5150800D01*
X5250500Y-5237800D02*
X5290500Y-5277800D01*
X5290500Y-5237800D02*
X5250500Y-5277800D01*
X5631500Y-6063300D02*
X5671500Y-6103300D01*
X5671500Y-6063300D02*
X5631500Y-6103300D01*
X6012500Y-5491800D02*
X6052500Y-5531800D01*
X6052500Y-5491800D02*
X6012500Y-5531800D01*
X6076000Y-5682300D02*
X6116000Y-5722300D01*
X6116000Y-5682300D02*
X6076000Y-5722300D01*
X6774500Y-5999800D02*
X6814500Y-6039800D01*
X6814500Y-5999800D02*
X6774500Y-6039800D01*
X6965000Y-5809300D02*
X7005000Y-5849300D01*
X7005000Y-5809300D02*
X6965000Y-5849300D01*
X9060500Y-5110800D02*
X9100500Y-5150800D01*
X9100500Y-5110800D02*
X9060500Y-5150800D01*
X11156000Y-5428300D02*
X11196000Y-5468300D01*
X11196000Y-5428300D02*
X11156000Y-5468300D01*
X11410000Y-5491800D02*
X11450000Y-5531800D01*
X11450000Y-5491800D02*
X11410000Y-5531800D01*
X5016600Y-5689600D02*
G75*
G03*
X5016600Y-5689600I-25000J0D01*
G01*
X5206600Y-5689600D02*
G75*
G03*
X5206600Y-5689600I-25000J0D01*
G01*
X6580800Y-2412800D02*
X6580800Y-2489000D01*
X6542700Y-2450900D02*
X6618900Y-2450900D01*
X6593500Y-2628700D02*
X6593500Y-2704900D01*
X6555400Y-2666800D02*
X6631600Y-2666800D01*
X6707800Y-2247700D02*
X6707800Y-2323900D01*
X6669700Y-2285800D02*
X6745900Y-2285800D01*
X6720500Y-2793800D02*
X6720500Y-2870000D01*
X6682400Y-2831900D02*
X6758600Y-2831900D01*
X6911000Y-2184200D02*
X6911000Y-2260400D01*
X6872900Y-2222300D02*
X6949100Y-2222300D01*
X6911000Y-2870000D02*
X6911000Y-2946200D01*
X6872900Y-2908100D02*
X6949100Y-2908100D01*
X7114200Y-2793800D02*
X7114200Y-2870000D01*
X7076100Y-2831900D02*
X7152300Y-2831900D01*
X7241200Y-2412800D02*
X7241200Y-2489000D01*
X7203100Y-2450900D02*
X7279300Y-2450900D01*
X7241200Y-2628700D02*
X7241200Y-2704900D01*
X7203100Y-2666800D02*
X7279300Y-2666800D01*
X10299600Y-2413000D02*
X10299600Y-2489200D01*
X10261500Y-2451100D02*
X10337700Y-2451100D01*
X10312300Y-2628900D02*
X10312300Y-2705100D01*
X10274200Y-2667000D02*
X10350400Y-2667000D01*
X10426600Y-2247900D02*
X10426600Y-2324100D01*
X10388500Y-2286000D02*
X10464700Y-2286000D01*
X10439300Y-2794000D02*
X10439300Y-2870200D01*
X10401200Y-2832100D02*
X10477400Y-2832100D01*
X10629800Y-2184400D02*
X10629800Y-2260600D01*
X10591700Y-2222500D02*
X10667900Y-2222500D01*
X10629800Y-2870200D02*
X10629800Y-2946400D01*
X10591700Y-2908300D02*
X10667900Y-2908300D01*
X10833000Y-2794000D02*
X10833000Y-2870200D01*
X10794900Y-2832100D02*
X10871100Y-2832100D01*
X10960000Y-2413000D02*
X10960000Y-2489200D01*
X10921900Y-2451100D02*
X10998100Y-2451100D01*
X10960000Y-2628900D02*
X10960000Y-2705100D01*
X10921900Y-2667000D02*
X10998100Y-2667000D01*
X8115300Y-2413000D02*
X8115300Y-2489200D01*
X8077200Y-2451100D02*
X8153400Y-2451100D01*
X8128000Y-2628900D02*
X8128000Y-2705100D01*
X8089900Y-2667000D02*
X8166100Y-2667000D01*
X8242300Y-2247900D02*
X8242300Y-2324100D01*
X8204200Y-2286000D02*
X8280400Y-2286000D01*
X8255000Y-2794000D02*
X8255000Y-2870200D01*
X8216900Y-2832100D02*
X8293100Y-2832100D01*
X8445500Y-2184400D02*
X8445500Y-2260600D01*
X8407400Y-2222500D02*
X8483600Y-2222500D01*
X8445500Y-2870200D02*
X8445500Y-2946400D01*
X8407400Y-2908300D02*
X8483600Y-2908300D01*
X8648700Y-2794000D02*
X8648700Y-2870200D01*
X8610600Y-2832100D02*
X8686800Y-2832100D01*
X8775700Y-2413000D02*
X8775700Y-2489200D01*
X8737600Y-2451100D02*
X8813800Y-2451100D01*
X8775700Y-2628900D02*
X8775700Y-2705100D01*
X8737600Y-2667000D02*
X8813800Y-2667000D01*
X2806700Y-2425700D02*
X2806700Y-2501900D01*
X2768600Y-2463800D02*
X2844800Y-2463800D01*
X2819400Y-2641600D02*
X2819400Y-2717800D01*
X2781300Y-2679700D02*
X2857500Y-2679700D01*
X2933700Y-2260600D02*
X2933700Y-2336800D01*
X2895600Y-2298700D02*
X2971800Y-2298700D01*
X2946400Y-2806700D02*
X2946400Y-2882900D01*
X2908300Y-2844800D02*
X2984500Y-2844800D01*
X3136900Y-2197100D02*
X3136900Y-2273300D01*
X3098800Y-2235200D02*
X3175000Y-2235200D01*
X3136900Y-2882900D02*
X3136900Y-2959100D01*
X3098800Y-2921000D02*
X3175000Y-2921000D01*
X3340100Y-2806700D02*
X3340100Y-2882900D01*
X3302000Y-2844800D02*
X3378200Y-2844800D01*
X3467100Y-2425700D02*
X3467100Y-2501900D01*
X3429000Y-2463800D02*
X3505200Y-2463800D01*
X3467100Y-2641600D02*
X3467100Y-2717800D01*
X3429000Y-2679700D02*
X3505200Y-2679700D01*
X11861800Y-2413000D02*
X11861800Y-2489200D01*
X11823700Y-2451100D02*
X11899900Y-2451100D01*
X11874500Y-2628900D02*
X11874500Y-2705100D01*
X11836400Y-2667000D02*
X11912600Y-2667000D01*
X11988800Y-2247900D02*
X11988800Y-2324100D01*
X11950700Y-2286000D02*
X12026900Y-2286000D01*
X12001500Y-2794000D02*
X12001500Y-2870200D01*
X11963400Y-2832100D02*
X12039600Y-2832100D01*
X12192000Y-2184400D02*
X12192000Y-2260600D01*
X12153900Y-2222500D02*
X12230100Y-2222500D01*
X12192000Y-2870200D02*
X12192000Y-2946400D01*
X12153900Y-2908300D02*
X12230100Y-2908300D01*
X12395200Y-2794000D02*
X12395200Y-2870200D01*
X12357100Y-2832100D02*
X12433300Y-2832100D01*
X12522200Y-2413000D02*
X12522200Y-2489200D01*
X12484100Y-2451100D02*
X12560300Y-2451100D01*
X12522200Y-2628900D02*
X12522200Y-2705100D01*
X12484100Y-2667000D02*
X12560300Y-2667000D01*
X4406900Y-2425700D02*
X4406900Y-2501900D01*
X4368800Y-2463800D02*
X4445000Y-2463800D01*
X4419600Y-2641600D02*
X4419600Y-2717800D01*
X4381500Y-2679700D02*
X4457700Y-2679700D01*
X4533900Y-2260600D02*
X4533900Y-2336800D01*
X4495800Y-2298700D02*
X4572000Y-2298700D01*
X4546600Y-2806700D02*
X4546600Y-2882900D01*
X4508500Y-2844800D02*
X4584700Y-2844800D01*
X4737100Y-2197100D02*
X4737100Y-2273300D01*
X4699000Y-2235200D02*
X4775200Y-2235200D01*
X4737100Y-2882900D02*
X4737100Y-2959100D01*
X4699000Y-2921000D02*
X4775200Y-2921000D01*
X4940300Y-2806700D02*
X4940300Y-2882900D01*
X4902200Y-2844800D02*
X4978400Y-2844800D01*
X5067300Y-2425700D02*
X5067300Y-2501900D01*
X5029200Y-2463800D02*
X5105400Y-2463800D01*
X5067300Y-2641600D02*
X5067300Y-2717800D01*
X5029200Y-2679700D02*
X5105400Y-2679700D01*
X6759284Y-5082885D02*
X6759284Y-5026316D01*
X6702715Y-5026316D01*
X6702715Y-5082885D01*
X6759284Y-5082885D01*
X7259284Y-5082885D02*
X7259284Y-5026316D01*
X7202715Y-5026316D01*
X7202715Y-5082885D01*
X7259284Y-5082885D01*
X13083884Y-2953284D02*
X13083884Y-2896715D01*
X13027315Y-2896715D01*
X13027315Y-2953284D01*
X13083884Y-2953284D01*
X13083884Y-3203284D02*
X13083884Y-3146715D01*
X13027315Y-3146715D01*
X13027315Y-3203284D01*
X13083884Y-3203284D01*
X9362785Y-2238085D02*
X9362785Y-2181516D01*
X9306216Y-2181516D01*
X9306216Y-2238085D01*
X9362785Y-2238085D01*
X9362785Y-3254084D02*
X9362785Y-3197515D01*
X9306216Y-3197515D01*
X9306216Y-3254084D01*
X9362785Y-3254084D01*
X6759284Y-4727285D02*
X6759284Y-4670716D01*
X6702715Y-4670716D01*
X6702715Y-4727285D01*
X6759284Y-4727285D01*
X7259284Y-4727285D02*
X7259284Y-4670716D01*
X7202715Y-4670716D01*
X7202715Y-4727285D01*
X7259284Y-4727285D01*
X9832685Y-2238085D02*
X9832685Y-2181516D01*
X9776116Y-2181516D01*
X9776116Y-2238085D01*
X9832685Y-2238085D01*
X9832685Y-3254084D02*
X9832685Y-3197515D01*
X9776116Y-3197515D01*
X9776116Y-3254084D01*
X9832685Y-3254084D01*
X5540085Y-5667084D02*
X5540085Y-5610515D01*
X5483516Y-5610515D01*
X5483516Y-5667084D01*
X5540085Y-5667084D01*
X5540085Y-6683084D02*
X5540085Y-6626515D01*
X5483516Y-6626515D01*
X5483516Y-6683084D01*
X5540085Y-6683084D01*
X3012784Y-4714585D02*
X3012784Y-4658016D01*
X2956215Y-4658016D01*
X2956215Y-4714585D01*
X3012784Y-4714585D01*
X4028784Y-4714585D02*
X4028784Y-4658016D01*
X3972215Y-4658016D01*
X3972215Y-4714585D01*
X4028784Y-4714585D01*
X12918784Y-4752685D02*
X12918784Y-4696116D01*
X12862215Y-4696116D01*
X12862215Y-4752685D01*
X12918784Y-4752685D01*
X13418784Y-4752685D02*
X13418784Y-4696116D01*
X13362215Y-4696116D01*
X13362215Y-4752685D01*
X13418784Y-4752685D01*
X6087284Y-3635484D02*
X6087284Y-3578915D01*
X6030715Y-3578915D01*
X6030715Y-3635484D01*
X6087284Y-3635484D01*
X6087284Y-4397485D02*
X6087284Y-4340916D01*
X6030715Y-4340916D01*
X6030715Y-4397485D01*
X6087284Y-4397485D01*
X6341284Y-3635484D02*
X6341284Y-3578915D01*
X6284715Y-3578915D01*
X6284715Y-3635484D01*
X6341284Y-3635484D01*
X6341284Y-4397485D02*
X6341284Y-4340916D01*
X6284715Y-4340916D01*
X6284715Y-4397485D01*
X6341284Y-4397485D01*
X6595284Y-3635484D02*
X6595284Y-3578915D01*
X6538715Y-3578915D01*
X6538715Y-3635484D01*
X6595284Y-3635484D01*
X6595284Y-4397485D02*
X6595284Y-4340916D01*
X6538715Y-4340916D01*
X6538715Y-4397485D01*
X6595284Y-4397485D01*
X6849284Y-3635484D02*
X6849284Y-3578915D01*
X6792715Y-3578915D01*
X6792715Y-3635484D01*
X6849284Y-3635484D01*
X6849284Y-4397485D02*
X6849284Y-4340916D01*
X6792715Y-4340916D01*
X6792715Y-4397485D01*
X6849284Y-4397485D01*
X7103284Y-3635484D02*
X7103284Y-3578915D01*
X7046715Y-3578915D01*
X7046715Y-3635484D01*
X7103284Y-3635484D01*
X7103284Y-4397485D02*
X7103284Y-4340916D01*
X7046715Y-4340916D01*
X7046715Y-4397485D01*
X7103284Y-4397485D01*
X7357284Y-3635484D02*
X7357284Y-3578915D01*
X7300715Y-3578915D01*
X7300715Y-3635484D01*
X7357284Y-3635484D01*
X7357284Y-4397485D02*
X7357284Y-4340916D01*
X7300715Y-4340916D01*
X7300715Y-4397485D01*
X7357284Y-4397485D01*
X7611284Y-3635484D02*
X7611284Y-3578915D01*
X7554715Y-3578915D01*
X7554715Y-3635484D01*
X7611284Y-3635484D01*
X7611284Y-4397485D02*
X7611284Y-4340916D01*
X7554715Y-4340916D01*
X7554715Y-4397485D01*
X7611284Y-4397485D01*
X7865284Y-3635484D02*
X7865284Y-3578915D01*
X7808715Y-3578915D01*
X7808715Y-3635484D01*
X7865284Y-3635484D01*
X7865284Y-4397485D02*
X7865284Y-4340916D01*
X7808715Y-4340916D01*
X7808715Y-4397485D01*
X7865284Y-4397485D01*
X8119284Y-3635484D02*
X8119284Y-3578915D01*
X8062715Y-3578915D01*
X8062715Y-3635484D01*
X8119284Y-3635484D01*
X8119284Y-4397485D02*
X8119284Y-4340916D01*
X8062715Y-4340916D01*
X8062715Y-4397485D01*
X8119284Y-4397485D01*
X8373284Y-3635484D02*
X8373284Y-3578915D01*
X8316715Y-3578915D01*
X8316715Y-3635484D01*
X8373284Y-3635484D01*
X8373284Y-4397485D02*
X8373284Y-4340916D01*
X8316715Y-4340916D01*
X8316715Y-4397485D01*
X8373284Y-4397485D01*
X8627285Y-3635484D02*
X8627285Y-3578915D01*
X8570716Y-3578915D01*
X8570716Y-3635484D01*
X8627285Y-3635484D01*
X8627285Y-4397485D02*
X8627285Y-4340916D01*
X8570716Y-4340916D01*
X8570716Y-4397485D01*
X8627285Y-4397485D01*
X8881285Y-3635484D02*
X8881285Y-3578915D01*
X8824716Y-3578915D01*
X8824716Y-3635484D01*
X8881285Y-3635484D01*
X8881285Y-4397485D02*
X8881285Y-4340916D01*
X8824716Y-4340916D01*
X8824716Y-4397485D01*
X8881285Y-4397485D01*
X9135285Y-3635484D02*
X9135285Y-3578915D01*
X9078716Y-3578915D01*
X9078716Y-3635484D01*
X9135285Y-3635484D01*
X9135285Y-4397485D02*
X9135285Y-4340916D01*
X9078716Y-4340916D01*
X9078716Y-4397485D01*
X9135285Y-4397485D01*
X9389285Y-3635484D02*
X9389285Y-3578915D01*
X9332716Y-3578915D01*
X9332716Y-3635484D01*
X9389285Y-3635484D01*
X9389285Y-4397485D02*
X9389285Y-4340916D01*
X9332716Y-4340916D01*
X9332716Y-4397485D01*
X9389285Y-4397485D01*
X3012784Y-5095585D02*
X3012784Y-5039016D01*
X2956215Y-5039016D01*
X2956215Y-5095585D01*
X3012784Y-5095585D01*
X4028784Y-5095585D02*
X4028784Y-5039016D01*
X3972215Y-5039016D01*
X3972215Y-5095585D01*
X4028784Y-5095585D01*
X3990684Y-2238085D02*
X3990684Y-2181516D01*
X3934115Y-2181516D01*
X3934115Y-2238085D01*
X3990684Y-2238085D01*
X3990684Y-3254084D02*
X3990684Y-3197515D01*
X3934115Y-3197515D01*
X3934115Y-3254084D01*
X3990684Y-3254084D01*
X4282785Y-4714585D02*
X4282785Y-4658016D01*
X4226216Y-4658016D01*
X4226216Y-4714585D01*
X4282785Y-4714585D01*
X4782785Y-4714585D02*
X4782785Y-4658016D01*
X4726216Y-4658016D01*
X4726216Y-4714585D01*
X4782785Y-4714585D01*
X2322885Y-3629484D02*
X2322885Y-3572915D01*
X2266316Y-3572915D01*
X2266316Y-3629484D01*
X2322885Y-3629484D01*
X2322885Y-4391485D02*
X2322885Y-4334916D01*
X2266316Y-4334916D01*
X2266316Y-4391485D01*
X2322885Y-4391485D01*
X2576885Y-3629484D02*
X2576885Y-3572915D01*
X2520316Y-3572915D01*
X2520316Y-3629484D01*
X2576885Y-3629484D01*
X2576885Y-4391485D02*
X2576885Y-4334916D01*
X2520316Y-4334916D01*
X2520316Y-4391485D01*
X2576885Y-4391485D01*
X2830884Y-3629484D02*
X2830884Y-3572915D01*
X2774316Y-3572915D01*
X2774316Y-3629484D01*
X2830884Y-3629484D01*
X2830884Y-4391485D02*
X2830884Y-4334916D01*
X2774316Y-4334916D01*
X2774316Y-4391485D01*
X2830884Y-4391485D01*
X3084884Y-3629484D02*
X3084884Y-3572915D01*
X3028315Y-3572915D01*
X3028315Y-3629484D01*
X3084884Y-3629484D01*
X3084884Y-4391485D02*
X3084884Y-4334916D01*
X3028315Y-4334916D01*
X3028315Y-4391485D01*
X3084884Y-4391485D01*
X3338884Y-3629484D02*
X3338884Y-3572915D01*
X3282315Y-3572915D01*
X3282315Y-3629484D01*
X3338884Y-3629484D01*
X3338884Y-4391485D02*
X3338884Y-4334916D01*
X3282315Y-4334916D01*
X3282315Y-4391485D01*
X3338884Y-4391485D01*
X3592884Y-3629484D02*
X3592884Y-3572915D01*
X3536315Y-3572915D01*
X3536315Y-3629484D01*
X3592884Y-3629484D01*
X3592884Y-4391485D02*
X3592884Y-4334916D01*
X3536315Y-4334916D01*
X3536315Y-4391485D01*
X3592884Y-4391485D01*
X3846884Y-3629484D02*
X3846884Y-3572915D01*
X3790315Y-3572915D01*
X3790315Y-3629484D01*
X3846884Y-3629484D01*
X3846884Y-4391485D02*
X3846884Y-4334916D01*
X3790315Y-4334916D01*
X3790315Y-4391485D01*
X3846884Y-4391485D01*
X4100884Y-3629484D02*
X4100884Y-3572915D01*
X4044315Y-3572915D01*
X4044315Y-3629484D01*
X4100884Y-3629484D01*
X4100884Y-4391485D02*
X4100884Y-4334916D01*
X4044315Y-4334916D01*
X4044315Y-4391485D01*
X4100884Y-4391485D01*
X4354885Y-3629484D02*
X4354885Y-3572915D01*
X4298316Y-3572915D01*
X4298316Y-3629484D01*
X4354885Y-3629484D01*
X4354885Y-4391485D02*
X4354885Y-4334916D01*
X4298316Y-4334916D01*
X4298316Y-4391485D01*
X4354885Y-4391485D01*
X4608885Y-3629484D02*
X4608885Y-3572915D01*
X4552316Y-3572915D01*
X4552316Y-3629484D01*
X4608885Y-3629484D01*
X4608885Y-4391485D02*
X4608885Y-4334916D01*
X4552316Y-4334916D01*
X4552316Y-4391485D01*
X4608885Y-4391485D01*
X4862885Y-3629484D02*
X4862885Y-3572915D01*
X4806316Y-3572915D01*
X4806316Y-3629484D01*
X4862885Y-3629484D01*
X4862885Y-4391485D02*
X4862885Y-4334916D01*
X4806316Y-4334916D01*
X4806316Y-4391485D01*
X4862885Y-4391485D01*
X5116885Y-3629484D02*
X5116885Y-3572915D01*
X5060316Y-3572915D01*
X5060316Y-3629484D01*
X5116885Y-3629484D01*
X5116885Y-4391485D02*
X5116885Y-4334916D01*
X5060316Y-4334916D01*
X5060316Y-4391485D01*
X5116885Y-4391485D01*
X5370885Y-3629484D02*
X5370885Y-3572915D01*
X5314316Y-3572915D01*
X5314316Y-3629484D01*
X5370885Y-3629484D01*
X5370885Y-4391485D02*
X5370885Y-4334916D01*
X5314316Y-4334916D01*
X5314316Y-4391485D01*
X5370885Y-4391485D01*
X5624884Y-3629484D02*
X5624884Y-3572915D01*
X5568316Y-3572915D01*
X5568316Y-3629484D01*
X5624884Y-3629484D01*
X5624884Y-4391485D02*
X5624884Y-4334916D01*
X5568316Y-4334916D01*
X5568316Y-4391485D01*
X5624884Y-4391485D01*
X4397085Y-5997284D02*
X4397085Y-5940715D01*
X4340516Y-5940715D01*
X4340516Y-5997284D01*
X4397085Y-5997284D01*
X4397085Y-6759284D02*
X4397085Y-6702715D01*
X4340516Y-6702715D01*
X4340516Y-6759284D01*
X4397085Y-6759284D01*
X4651085Y-5997284D02*
X4651085Y-5940715D01*
X4594516Y-5940715D01*
X4594516Y-5997284D01*
X4651085Y-5997284D01*
X4651085Y-6759284D02*
X4651085Y-6702715D01*
X4594516Y-6702715D01*
X4594516Y-6759284D01*
X4651085Y-6759284D01*
X4905085Y-5997284D02*
X4905085Y-5940715D01*
X4848516Y-5940715D01*
X4848516Y-5997284D01*
X4905085Y-5997284D01*
X4905085Y-6759284D02*
X4905085Y-6702715D01*
X4848516Y-6702715D01*
X4848516Y-6759284D01*
X4905085Y-6759284D01*
X5159085Y-5997284D02*
X5159085Y-5940715D01*
X5102516Y-5940715D01*
X5102516Y-5997284D01*
X5159085Y-5997284D01*
X5159085Y-6759284D02*
X5159085Y-6702715D01*
X5102516Y-6702715D01*
X5102516Y-6759284D01*
X5159085Y-6759284D01*
X9879885Y-3638884D02*
X9879885Y-3582315D01*
X9823316Y-3582315D01*
X9823316Y-3638884D01*
X9879885Y-3638884D01*
X9879885Y-4400885D02*
X9879885Y-4344316D01*
X9823316Y-4344316D01*
X9823316Y-4400885D01*
X9879885Y-4400885D01*
X10133885Y-3638884D02*
X10133885Y-3582315D01*
X10077316Y-3582315D01*
X10077316Y-3638884D01*
X10133885Y-3638884D01*
X10133885Y-4400885D02*
X10133885Y-4344316D01*
X10077316Y-4344316D01*
X10077316Y-4400885D01*
X10133885Y-4400885D01*
X10387885Y-3638884D02*
X10387885Y-3582315D01*
X10331316Y-3582315D01*
X10331316Y-3638884D01*
X10387885Y-3638884D01*
X10387885Y-4400885D02*
X10387885Y-4344316D01*
X10331316Y-4344316D01*
X10331316Y-4400885D01*
X10387885Y-4400885D01*
X10641885Y-3638884D02*
X10641885Y-3582315D01*
X10585316Y-3582315D01*
X10585316Y-3638884D01*
X10641885Y-3638884D01*
X10641885Y-4400885D02*
X10641885Y-4344316D01*
X10585316Y-4344316D01*
X10585316Y-4400885D01*
X10641885Y-4400885D01*
X10895885Y-3638884D02*
X10895885Y-3582315D01*
X10839316Y-3582315D01*
X10839316Y-3638884D01*
X10895885Y-3638884D01*
X10895885Y-4400885D02*
X10895885Y-4344316D01*
X10839316Y-4344316D01*
X10839316Y-4400885D01*
X10895885Y-4400885D01*
X11149885Y-3638884D02*
X11149885Y-3582315D01*
X11093316Y-3582315D01*
X11093316Y-3638884D01*
X11149885Y-3638884D01*
X11149885Y-4400885D02*
X11149885Y-4344316D01*
X11093316Y-4344316D01*
X11093316Y-4400885D01*
X11149885Y-4400885D01*
X11403884Y-3638884D02*
X11403884Y-3582315D01*
X11347315Y-3582315D01*
X11347315Y-3638884D01*
X11403884Y-3638884D01*
X11403884Y-4400885D02*
X11403884Y-4344316D01*
X11347315Y-4344316D01*
X11347315Y-4400885D01*
X11403884Y-4400885D01*
X11657884Y-3638884D02*
X11657884Y-3582315D01*
X11601315Y-3582315D01*
X11601315Y-3638884D01*
X11657884Y-3638884D01*
X11657884Y-4400885D02*
X11657884Y-4344316D01*
X11601315Y-4344316D01*
X11601315Y-4400885D01*
X11657884Y-4400885D01*
X11911884Y-3638884D02*
X11911884Y-3582315D01*
X11855315Y-3582315D01*
X11855315Y-3638884D01*
X11911884Y-3638884D01*
X11911884Y-4400885D02*
X11911884Y-4344316D01*
X11855315Y-4344316D01*
X11855315Y-4400885D01*
X11911884Y-4400885D01*
X12165884Y-3638884D02*
X12165884Y-3582315D01*
X12109315Y-3582315D01*
X12109315Y-3638884D01*
X12165884Y-3638884D01*
X12165884Y-4400885D02*
X12165884Y-4344316D01*
X12109315Y-4344316D01*
X12109315Y-4400885D01*
X12165884Y-4400885D01*
X12419884Y-3638884D02*
X12419884Y-3582315D01*
X12363315Y-3582315D01*
X12363315Y-3638884D01*
X12419884Y-3638884D01*
X12419884Y-4400885D02*
X12419884Y-4344316D01*
X12363315Y-4344316D01*
X12363315Y-4400885D01*
X12419884Y-4400885D01*
X12673884Y-3638884D02*
X12673884Y-3582315D01*
X12617315Y-3582315D01*
X12617315Y-3638884D01*
X12673884Y-3638884D01*
X12673884Y-4400885D02*
X12673884Y-4344316D01*
X12617315Y-4344316D01*
X12617315Y-4400885D01*
X12673884Y-4400885D01*
X12927884Y-3638884D02*
X12927884Y-3582315D01*
X12871315Y-3582315D01*
X12871315Y-3638884D01*
X12927884Y-3638884D01*
X12927884Y-4400885D02*
X12927884Y-4344316D01*
X12871315Y-4344316D01*
X12871315Y-4400885D01*
X12927884Y-4400885D01*
X13181884Y-3638884D02*
X13181884Y-3582315D01*
X13125315Y-3582315D01*
X13125315Y-3638884D01*
X13181884Y-3638884D01*
X13181884Y-4400885D02*
X13181884Y-4344316D01*
X13125315Y-4344316D01*
X13125315Y-4400885D01*
X13181884Y-4400885D01*
X5489285Y-5159085D02*
X5489285Y-5102516D01*
X5432716Y-5102516D01*
X5432716Y-5159085D01*
X5489285Y-5159085D01*
X6505284Y-5159085D02*
X6505284Y-5102516D01*
X6448715Y-5102516D01*
X6448715Y-5159085D01*
X6505284Y-5159085D01*
X4282785Y-5095585D02*
X4282785Y-5039016D01*
X4226216Y-5039016D01*
X4226216Y-5095585D01*
X4282785Y-5095585D01*
X4782785Y-5095585D02*
X4782785Y-5039016D01*
X4726216Y-5039016D01*
X4726216Y-5095585D01*
X4782785Y-5095585D01*
X5641684Y-2238085D02*
X5641684Y-2181516D01*
X5585116Y-2181516D01*
X5585116Y-2238085D01*
X5641684Y-2238085D01*
X5641684Y-3254084D02*
X5641684Y-3197515D01*
X5585116Y-3197515D01*
X5585116Y-3254084D01*
X5641684Y-3254084D01*
X11407484Y-2238085D02*
X11407484Y-2181516D01*
X11350915Y-2181516D01*
X11350915Y-2238085D01*
X11407484Y-2238085D01*
X11407484Y-3254084D02*
X11407484Y-3197515D01*
X11350915Y-3197515D01*
X11350915Y-3254084D01*
X11407484Y-3254084D01*
X3012784Y-5413085D02*
X3012784Y-5356516D01*
X2956215Y-5356516D01*
X2956215Y-5413085D01*
X3012784Y-5413085D01*
X3012784Y-6429084D02*
X3012784Y-6372515D01*
X2956215Y-6372515D01*
X2956215Y-6429084D01*
X3012784Y-6429084D01*
X6124284Y-2238085D02*
X6124284Y-2181516D01*
X6067715Y-2181516D01*
X6067715Y-2238085D01*
X6124284Y-2238085D01*
X6124284Y-3254084D02*
X6124284Y-3197515D01*
X6067715Y-3197515D01*
X6067715Y-3254084D01*
X6124284Y-3254084D01*
X2413000Y-4794800D02*
X2458000Y-4749800D01*
X2413000Y-4704800D01*
X2368000Y-4749800D01*
X2413000Y-4794800D01*
X2413000Y-5048800D02*
X2458000Y-5003800D01*
X2413000Y-4958800D01*
X2368000Y-5003800D01*
X2413000Y-5048800D01*
X2553500Y-5411000D02*
X2653500Y-5511000D01*
X2653500Y-5411000D02*
X2553500Y-5511000D01*
X2653500Y-5461000D02*
G75*
G03*
X2653500Y-5461000I-50000J0D01*
G01*
X2553500Y-5665000D02*
X2653500Y-5765000D01*
X2653500Y-5665000D02*
X2553500Y-5765000D01*
X2653500Y-5715000D02*
G75*
G03*
X2653500Y-5715000I-50000J0D01*
G01*
X2553500Y-5919000D02*
X2653500Y-6019000D01*
X2653500Y-5919000D02*
X2553500Y-6019000D01*
X2653500Y-5969000D02*
G75*
G03*
X2653500Y-5969000I-50000J0D01*
G01*
X2553500Y-6173000D02*
X2653500Y-6273000D01*
X2653500Y-6173000D02*
X2553500Y-6273000D01*
X2653500Y-6223000D02*
G75*
G03*
X2653500Y-6223000I-50000J0D01*
G01*
X13031000Y-5262600D02*
X13131000Y-5362600D01*
X13131000Y-5262600D02*
X13031000Y-5362600D01*
X13131000Y-5312600D02*
G75*
G03*
X13131000Y-5312600I-50000J0D01*
G01*
X13031000Y-5512600D02*
X13131000Y-5612600D01*
X13131000Y-5512600D02*
X13031000Y-5612600D01*
X13131000Y-5562600D02*
G75*
G03*
X13131000Y-5562600I-50000J0D01*
G01*
X5690400Y-4674400D02*
X5790400Y-4774400D01*
X5790400Y-4674400D02*
X5690400Y-4774400D01*
X5790400Y-4724400D02*
G75*
G03*
X5790400Y-4724400I-50000J0D01*
G01*
X5944400Y-4674400D02*
X6044400Y-4774400D01*
X6044400Y-4674400D02*
X5944400Y-4774400D01*
X6044400Y-4724400D02*
G75*
G03*
X6044400Y-4724400I-50000J0D01*
G01*
X6198400Y-4674400D02*
X6298400Y-4774400D01*
X6298400Y-4674400D02*
X6198400Y-4774400D01*
X6298400Y-4724400D02*
G75*
G03*
X6298400Y-4724400I-50000J0D01*
G01*
X3442500Y-5842800D02*
X3542500Y-5942800D01*
X3542500Y-5842800D02*
X3442500Y-5942800D01*
X3542500Y-5892800D02*
G75*
G03*
X3542500Y-5892800I-50000J0D01*
G01*
X3696500Y-5842800D02*
X3796500Y-5942800D01*
X3796500Y-5842800D02*
X3696500Y-5942800D01*
X3796500Y-5892800D02*
G75*
G03*
X3796500Y-5892800I-50000J0D01*
G01*
X3950500Y-5842800D02*
X4050500Y-5942800D01*
X4050500Y-5842800D02*
X3950500Y-5942800D01*
X4050500Y-5892800D02*
G75*
G03*
X4050500Y-5892800I-50000J0D01*
G01*
X2172500Y-5461800D02*
X2272500Y-5561800D01*
X2272500Y-5461800D02*
X2172500Y-5561800D01*
X2272500Y-5511800D02*
G75*
G03*
X2272500Y-5511800I-50000J0D01*
G01*
X2172500Y-5715800D02*
X2272500Y-5815800D01*
X2272500Y-5715800D02*
X2172500Y-5815800D01*
X2272500Y-5765800D02*
G75*
G03*
X2272500Y-5765800I-50000J0D01*
G01*
X2172500Y-5969800D02*
X2272500Y-6069800D01*
X2272500Y-5969800D02*
X2172500Y-6069800D01*
X2272500Y-6019800D02*
G75*
G03*
X2272500Y-6019800I-50000J0D01*
G01*
X7570000Y-4814100D02*
X7670000Y-4914100D01*
X7670000Y-4814100D02*
X7570000Y-4914100D01*
X7670000Y-4864100D02*
G75*
G03*
X7670000Y-4864100I-50000J0D01*
G01*
X7570000Y-6655600D02*
X7670000Y-6755600D01*
X7670000Y-6655600D02*
X7570000Y-6755600D01*
X7670000Y-6705600D02*
G75*
G03*
X7670000Y-6705600I-50000J0D01*
G01*
X7824000Y-4814100D02*
X7924000Y-4914100D01*
X7924000Y-4814100D02*
X7824000Y-4914100D01*
X7924000Y-4864100D02*
G75*
G03*
X7924000Y-4864100I-50000J0D01*
G01*
X7824000Y-6655600D02*
X7924000Y-6755600D01*
X7924000Y-6655600D02*
X7824000Y-6755600D01*
X7924000Y-6705600D02*
G75*
G03*
X7924000Y-6705600I-50000J0D01*
G01*
X8078000Y-4814100D02*
X8178000Y-4914100D01*
X8178000Y-4814100D02*
X8078000Y-4914100D01*
X8178000Y-4864100D02*
G75*
G03*
X8178000Y-4864100I-50000J0D01*
G01*
X8078000Y-6655600D02*
X8178000Y-6755600D01*
X8178000Y-6655600D02*
X8078000Y-6755600D01*
X8178000Y-6705600D02*
G75*
G03*
X8178000Y-6705600I-50000J0D01*
G01*
X8332000Y-4814100D02*
X8432000Y-4914100D01*
X8432000Y-4814100D02*
X8332000Y-4914100D01*
X8432000Y-4864100D02*
G75*
G03*
X8432000Y-4864100I-50000J0D01*
G01*
X8332000Y-6655600D02*
X8432000Y-6755600D01*
X8432000Y-6655600D02*
X8332000Y-6755600D01*
X8432000Y-6705600D02*
G75*
G03*
X8432000Y-6705600I-50000J0D01*
G01*
X8586000Y-4814100D02*
X8686000Y-4914100D01*
X8686000Y-4814100D02*
X8586000Y-4914100D01*
X8686000Y-4864100D02*
G75*
G03*
X8686000Y-4864100I-50000J0D01*
G01*
X8586000Y-6655600D02*
X8686000Y-6755600D01*
X8686000Y-6655600D02*
X8586000Y-6755600D01*
X8686000Y-6705600D02*
G75*
G03*
X8686000Y-6705600I-50000J0D01*
G01*
X8840000Y-4814100D02*
X8940000Y-4914100D01*
X8940000Y-4814100D02*
X8840000Y-4914100D01*
X8940000Y-4864100D02*
G75*
G03*
X8940000Y-4864100I-50000J0D01*
G01*
X8840000Y-6655600D02*
X8940000Y-6755600D01*
X8940000Y-6655600D02*
X8840000Y-6755600D01*
X8940000Y-6705600D02*
G75*
G03*
X8940000Y-6705600I-50000J0D01*
G01*
X9094000Y-4814100D02*
X9194000Y-4914100D01*
X9194000Y-4814100D02*
X9094000Y-4914100D01*
X9194000Y-4864100D02*
G75*
G03*
X9194000Y-4864100I-50000J0D01*
G01*
X9094000Y-6655600D02*
X9194000Y-6755600D01*
X9194000Y-6655600D02*
X9094000Y-6755600D01*
X9194000Y-6705600D02*
G75*
G03*
X9194000Y-6705600I-50000J0D01*
G01*
X9348000Y-4814100D02*
X9448000Y-4914100D01*
X9448000Y-4814100D02*
X9348000Y-4914100D01*
X9448000Y-4864100D02*
G75*
G03*
X9448000Y-4864100I-50000J0D01*
G01*
X9348000Y-6655600D02*
X9448000Y-6755600D01*
X9448000Y-6655600D02*
X9348000Y-6755600D01*
X9448000Y-6705600D02*
G75*
G03*
X9448000Y-6705600I-50000J0D01*
G01*
X9602000Y-4814100D02*
X9702000Y-4914100D01*
X9702000Y-4814100D02*
X9602000Y-4914100D01*
X9702000Y-4864100D02*
G75*
G03*
X9702000Y-4864100I-50000J0D01*
G01*
X9602000Y-6655600D02*
X9702000Y-6755600D01*
X9702000Y-6655600D02*
X9602000Y-6755600D01*
X9702000Y-6705600D02*
G75*
G03*
X9702000Y-6705600I-50000J0D01*
G01*
X9856000Y-4814100D02*
X9956000Y-4914100D01*
X9956000Y-4814100D02*
X9856000Y-4914100D01*
X9956000Y-4864100D02*
G75*
G03*
X9956000Y-4864100I-50000J0D01*
G01*
X9856000Y-6655600D02*
X9956000Y-6755600D01*
X9956000Y-6655600D02*
X9856000Y-6755600D01*
X9956000Y-6705600D02*
G75*
G03*
X9956000Y-6705600I-50000J0D01*
G01*
X10110000Y-4814100D02*
X10210000Y-4914100D01*
X10210000Y-4814100D02*
X10110000Y-4914100D01*
X10210000Y-4864100D02*
G75*
G03*
X10210000Y-4864100I-50000J0D01*
G01*
X10110000Y-6655600D02*
X10210000Y-6755600D01*
X10210000Y-6655600D02*
X10110000Y-6755600D01*
X10210000Y-6705600D02*
G75*
G03*
X10210000Y-6705600I-50000J0D01*
G01*
X10364000Y-4814100D02*
X10464000Y-4914100D01*
X10464000Y-4814100D02*
X10364000Y-4914100D01*
X10464000Y-4864100D02*
G75*
G03*
X10464000Y-4864100I-50000J0D01*
G01*
X10364000Y-6655600D02*
X10464000Y-6755600D01*
X10464000Y-6655600D02*
X10364000Y-6755600D01*
X10464000Y-6705600D02*
G75*
G03*
X10464000Y-6705600I-50000J0D01*
G01*
X10618000Y-4814100D02*
X10718000Y-4914100D01*
X10718000Y-4814100D02*
X10618000Y-4914100D01*
X10718000Y-4864100D02*
G75*
G03*
X10718000Y-4864100I-50000J0D01*
G01*
X10618000Y-6655600D02*
X10718000Y-6755600D01*
X10718000Y-6655600D02*
X10618000Y-6755600D01*
X10718000Y-6705600D02*
G75*
G03*
X10718000Y-6705600I-50000J0D01*
G01*
X10872000Y-4814100D02*
X10972000Y-4914100D01*
X10972000Y-4814100D02*
X10872000Y-4914100D01*
X10972000Y-4864100D02*
G75*
G03*
X10972000Y-4864100I-50000J0D01*
G01*
X10872000Y-6655600D02*
X10972000Y-6755600D01*
X10972000Y-6655600D02*
X10872000Y-6755600D01*
X10972000Y-6705600D02*
G75*
G03*
X10972000Y-6705600I-50000J0D01*
G01*
X11126000Y-4814100D02*
X11226000Y-4914100D01*
X11226000Y-4814100D02*
X11126000Y-4914100D01*
X11226000Y-4864100D02*
G75*
G03*
X11226000Y-4864100I-50000J0D01*
G01*
X11126000Y-6655600D02*
X11226000Y-6755600D01*
X11226000Y-6655600D02*
X11126000Y-6755600D01*
X11226000Y-6705600D02*
G75*
G03*
X11226000Y-6705600I-50000J0D01*
G01*
X11380000Y-4814100D02*
X11480000Y-4914100D01*
X11480000Y-4814100D02*
X11380000Y-4914100D01*
X11480000Y-4864100D02*
G75*
G03*
X11480000Y-4864100I-50000J0D01*
G01*
X11380000Y-6655600D02*
X11480000Y-6755600D01*
X11480000Y-6655600D02*
X11380000Y-6755600D01*
X11480000Y-6705600D02*
G75*
G03*
X11480000Y-6705600I-50000J0D01*
G01*
X11634000Y-4814100D02*
X11734000Y-4914100D01*
X11734000Y-4814100D02*
X11634000Y-4914100D01*
X11734000Y-4864100D02*
G75*
G03*
X11734000Y-4864100I-50000J0D01*
G01*
X11634000Y-6655600D02*
X11734000Y-6755600D01*
X11734000Y-6655600D02*
X11634000Y-6755600D01*
X11734000Y-6705600D02*
G75*
G03*
X11734000Y-6705600I-50000J0D01*
G01*
X11888000Y-4814100D02*
X11988000Y-4914100D01*
X11988000Y-4814100D02*
X11888000Y-4914100D01*
X11988000Y-4864100D02*
G75*
G03*
X11988000Y-4864100I-50000J0D01*
G01*
X11888000Y-6655600D02*
X11988000Y-6755600D01*
X11988000Y-6655600D02*
X11888000Y-6755600D01*
X11988000Y-6705600D02*
G75*
G03*
X11988000Y-6705600I-50000J0D01*
G01*
X12142000Y-4814100D02*
X12242000Y-4914100D01*
X12242000Y-4814100D02*
X12142000Y-4914100D01*
X12242000Y-4864100D02*
G75*
G03*
X12242000Y-4864100I-50000J0D01*
G01*
X12142000Y-6655600D02*
X12242000Y-6755600D01*
X12242000Y-6655600D02*
X12142000Y-6755600D01*
X12242000Y-6705600D02*
G75*
G03*
X12242000Y-6705600I-50000J0D01*
G01*
X12396000Y-4814100D02*
X12496000Y-4914100D01*
X12496000Y-4814100D02*
X12396000Y-4914100D01*
X12496000Y-4864100D02*
G75*
G03*
X12496000Y-4864100I-50000J0D01*
G01*
X12396000Y-5474500D02*
X12496000Y-5574500D01*
X12496000Y-5474500D02*
X12396000Y-5574500D01*
X12496000Y-5524500D02*
G75*
G03*
X12496000Y-5524500I-50000J0D01*
G01*
X12396000Y-5728500D02*
X12496000Y-5828500D01*
X12496000Y-5728500D02*
X12396000Y-5828500D01*
X12496000Y-5778500D02*
G75*
G03*
X12496000Y-5778500I-50000J0D01*
G01*
X12396000Y-5982500D02*
X12496000Y-6082500D01*
X12496000Y-5982500D02*
X12396000Y-6082500D01*
X12496000Y-6032500D02*
G75*
G03*
X12496000Y-6032500I-50000J0D01*
G01*
X12396000Y-6655600D02*
X12496000Y-6755600D01*
X12496000Y-6655600D02*
X12396000Y-6755600D01*
X12496000Y-6705600D02*
G75*
G03*
X12496000Y-6705600I-50000J0D01*
G01*
X5982500Y-6604800D02*
X6082500Y-6704800D01*
X6082500Y-6604800D02*
X5982500Y-6704800D01*
X6082500Y-6654800D02*
G75*
G03*
X6082500Y-6654800I-50000J0D01*
G01*
X6236500Y-6604800D02*
X6336500Y-6704800D01*
X6336500Y-6604800D02*
X6236500Y-6704800D01*
X6336500Y-6654800D02*
G75*
G03*
X6336500Y-6654800I-50000J0D01*
G01*
X6490500Y-6604800D02*
X6590500Y-6704800D01*
X6590500Y-6604800D02*
X6490500Y-6704800D01*
X6590500Y-6654800D02*
G75*
G03*
X6590500Y-6654800I-50000J0D01*
G01*
X6744500Y-6604800D02*
X6844500Y-6704800D01*
X6844500Y-6604800D02*
X6744500Y-6704800D01*
X6844500Y-6654800D02*
G75*
G03*
X6844500Y-6654800I-50000J0D01*
G01*
X6998500Y-6604800D02*
X7098500Y-6704800D01*
X7098500Y-6604800D02*
X6998500Y-6704800D01*
X7098500Y-6654800D02*
G75*
G03*
X7098500Y-6654800I-50000J0D01*
G01*
X3442500Y-5398300D02*
X3542500Y-5498300D01*
X3542500Y-5398300D02*
X3442500Y-5498300D01*
X3542500Y-5448300D02*
G75*
G03*
X3542500Y-5448300I-50000J0D01*
G01*
X3696500Y-5398300D02*
X3796500Y-5498300D01*
X3796500Y-5398300D02*
X3696500Y-5498300D01*
X3796500Y-5448300D02*
G75*
G03*
X3796500Y-5448300I-50000J0D01*
G01*
X3950500Y-5398300D02*
X4050500Y-5498300D01*
X4050500Y-5398300D02*
X3950500Y-5498300D01*
X4050500Y-5448300D02*
G75*
G03*
X4050500Y-5448300I-50000J0D01*
G01*
X4204500Y-5398300D02*
X4304500Y-5498300D01*
X4304500Y-5398300D02*
X4204500Y-5498300D01*
X4304500Y-5448300D02*
G75*
G03*
X4304500Y-5448300I-50000J0D01*
G01*
X4458500Y-5398300D02*
X4558500Y-5498300D01*
X4558500Y-5398300D02*
X4458500Y-5498300D01*
X4558500Y-5448300D02*
G75*
G03*
X4558500Y-5448300I-50000J0D01*
G01*
D12*
X2068428Y-7688014D02*
X2068428Y-7388014D01*
X2139857Y-7388014D01*
X2182714Y-7402300D01*
X2211286Y-7430871D01*
X2225571Y-7459443D01*
X2239857Y-7516586D01*
X2239857Y-7559443D01*
X2225571Y-7616586D01*
X2211286Y-7645157D01*
X2182714Y-7673728D01*
X2139857Y-7688014D01*
X2068428Y-7688014D01*
X2368429Y-7688014D02*
X2368429Y-7488014D01*
X2368429Y-7545157D02*
X2382714Y-7516586D01*
X2397000Y-7502300D01*
X2425571Y-7488014D01*
X2454143Y-7488014D01*
X2554143Y-7688014D02*
X2554143Y-7488014D01*
X2554143Y-7388014D02*
X2539857Y-7402300D01*
X2554143Y-7416586D01*
X2568429Y-7402300D01*
X2554143Y-7388014D01*
X2554143Y-7416586D01*
X2739857Y-7688014D02*
X2711286Y-7673728D01*
X2697000Y-7645157D01*
X2697000Y-7388014D01*
X2897000Y-7688014D02*
X2868428Y-7673728D01*
X2854143Y-7645157D01*
X2854143Y-7388014D01*
X3239857Y-7688014D02*
X3239857Y-7388014D01*
X3339857Y-7602300D01*
X3439857Y-7388014D01*
X3439857Y-7688014D01*
X3711286Y-7688014D02*
X3711286Y-7530871D01*
X3697000Y-7502300D01*
X3668428Y-7488014D01*
X3611286Y-7488014D01*
X3582714Y-7502300D01*
X3711286Y-7673728D02*
X3682714Y-7688014D01*
X3611286Y-7688014D01*
X3582714Y-7673728D01*
X3568428Y-7645157D01*
X3568428Y-7616586D01*
X3582714Y-7588014D01*
X3611286Y-7573728D01*
X3682714Y-7573728D01*
X3711286Y-7559443D01*
X3854143Y-7488014D02*
X3854143Y-7788014D01*
X3854143Y-7502300D02*
X3882714Y-7488014D01*
X3939857Y-7488014D01*
X3968428Y-7502300D01*
X3982714Y-7516586D01*
X3997000Y-7545157D01*
X3997000Y-7630871D01*
X3982714Y-7659443D01*
X3968428Y-7673728D01*
X3939857Y-7688014D01*
X3882714Y-7688014D01*
X3854143Y-7673728D01*
X4125571Y-7659443D02*
X4139857Y-7673728D01*
X4125571Y-7688014D01*
X4111286Y-7673728D01*
X4125571Y-7659443D01*
X4125571Y-7688014D01*
X4125571Y-7502300D02*
X4139857Y-7516586D01*
X4125571Y-7530871D01*
X4111286Y-7516586D01*
X4125571Y-7502300D01*
X4125571Y-7530871D01*
X1742000Y-8162300D02*
X1782000Y-8202300D01*
X1782000Y-8162300D02*
X1742000Y-8202300D01*
X2125571Y-8018014D02*
X2154143Y-8018014D01*
X2182714Y-8032300D01*
X2197000Y-8046586D01*
X2211286Y-8075157D01*
X2225571Y-8132300D01*
X2225571Y-8203728D01*
X2211286Y-8260871D01*
X2197000Y-8289443D01*
X2182714Y-8303728D01*
X2154143Y-8318014D01*
X2125571Y-8318014D01*
X2097000Y-8303728D01*
X2082714Y-8289443D01*
X2068428Y-8260871D01*
X2054143Y-8203728D01*
X2054143Y-8132300D01*
X2068428Y-8075157D01*
X2082714Y-8046586D01*
X2097000Y-8032300D01*
X2125571Y-8018014D01*
X2354143Y-8289443D02*
X2368429Y-8303728D01*
X2354143Y-8318014D01*
X2339857Y-8303728D01*
X2354143Y-8289443D01*
X2354143Y-8318014D01*
X2625571Y-8118014D02*
X2625571Y-8318014D01*
X2554143Y-8003728D02*
X2482714Y-8218014D01*
X2668429Y-8218014D01*
X2839857Y-8018014D02*
X2868428Y-8018014D01*
X2897000Y-8032300D01*
X2911286Y-8046586D01*
X2925571Y-8075157D01*
X2939857Y-8132300D01*
X2939857Y-8203728D01*
X2925571Y-8260871D01*
X2911286Y-8289443D01*
X2897000Y-8303728D01*
X2868428Y-8318014D01*
X2839857Y-8318014D01*
X2811286Y-8303728D01*
X2797000Y-8289443D01*
X2782714Y-8260871D01*
X2768429Y-8203728D01*
X2768429Y-8132300D01*
X2782714Y-8075157D01*
X2797000Y-8046586D01*
X2811286Y-8032300D01*
X2839857Y-8018014D01*
X3068428Y-8318014D02*
X3068428Y-8118014D01*
X3068428Y-8146586D02*
X3082714Y-8132300D01*
X3111286Y-8118014D01*
X3154143Y-8118014D01*
X3182714Y-8132300D01*
X3197000Y-8160871D01*
X3197000Y-8318014D01*
X3197000Y-8160871D02*
X3211286Y-8132300D01*
X3239857Y-8118014D01*
X3282714Y-8118014D01*
X3311286Y-8132300D01*
X3325571Y-8160871D01*
X3325571Y-8318014D01*
X3468428Y-8318014D02*
X3468428Y-8118014D01*
X3468428Y-8146586D02*
X3482714Y-8132300D01*
X3511286Y-8118014D01*
X3554143Y-8118014D01*
X3582714Y-8132300D01*
X3597000Y-8160871D01*
X3597000Y-8318014D01*
X3597000Y-8160871D02*
X3611286Y-8132300D01*
X3639857Y-8118014D01*
X3682714Y-8118014D01*
X3711286Y-8132300D01*
X3725571Y-8160871D01*
X3725571Y-8318014D01*
X4311286Y-8003728D02*
X4054143Y-8389443D01*
X4697000Y-8018014D02*
X4725571Y-8018014D01*
X4754143Y-8032300D01*
X4768429Y-8046586D01*
X4782714Y-8075157D01*
X4797000Y-8132300D01*
X4797000Y-8203728D01*
X4782714Y-8260871D01*
X4768429Y-8289443D01*
X4754143Y-8303728D01*
X4725571Y-8318014D01*
X4697000Y-8318014D01*
X4668429Y-8303728D01*
X4654143Y-8289443D01*
X4639857Y-8260871D01*
X4625571Y-8203728D01*
X4625571Y-8132300D01*
X4639857Y-8075157D01*
X4654143Y-8046586D01*
X4668429Y-8032300D01*
X4697000Y-8018014D01*
X4925571Y-8289443D02*
X4939857Y-8303728D01*
X4925571Y-8318014D01*
X4911286Y-8303728D01*
X4925571Y-8289443D01*
X4925571Y-8318014D01*
X5125571Y-8018014D02*
X5154143Y-8018014D01*
X5182714Y-8032300D01*
X5197000Y-8046586D01*
X5211286Y-8075157D01*
X5225571Y-8132300D01*
X5225571Y-8203728D01*
X5211286Y-8260871D01*
X5197000Y-8289443D01*
X5182714Y-8303728D01*
X5154143Y-8318014D01*
X5125571Y-8318014D01*
X5097000Y-8303728D01*
X5082714Y-8289443D01*
X5068429Y-8260871D01*
X5054143Y-8203728D01*
X5054143Y-8132300D01*
X5068429Y-8075157D01*
X5082714Y-8046586D01*
X5097000Y-8032300D01*
X5125571Y-8018014D01*
X5511286Y-8318014D02*
X5339857Y-8318014D01*
X5425571Y-8318014D02*
X5425571Y-8018014D01*
X5397000Y-8060871D01*
X5368429Y-8089443D01*
X5339857Y-8103728D01*
X5768428Y-8018014D02*
X5711286Y-8018014D01*
X5682714Y-8032300D01*
X5668428Y-8046586D01*
X5639857Y-8089443D01*
X5625571Y-8146586D01*
X5625571Y-8260871D01*
X5639857Y-8289443D01*
X5654143Y-8303728D01*
X5682714Y-8318014D01*
X5739857Y-8318014D01*
X5768428Y-8303728D01*
X5782714Y-8289443D01*
X5797000Y-8260871D01*
X5797000Y-8189443D01*
X5782714Y-8160871D01*
X5768428Y-8146586D01*
X5739857Y-8132300D01*
X5682714Y-8132300D01*
X5654143Y-8146586D01*
X5639857Y-8160871D01*
X5625571Y-8189443D01*
X5911286Y-8018014D02*
X5911286Y-8075157D01*
X6025571Y-8018014D02*
X6025571Y-8075157D01*
X6468428Y-8432300D02*
X6454143Y-8418014D01*
X6425571Y-8375157D01*
X6411286Y-8346586D01*
X6397000Y-8303728D01*
X6382714Y-8232300D01*
X6382714Y-8175157D01*
X6397000Y-8103728D01*
X6411286Y-8060871D01*
X6425571Y-8032300D01*
X6454143Y-7989443D01*
X6468428Y-7975157D01*
X6739857Y-8318014D02*
X6568428Y-8318014D01*
X6654143Y-8318014D02*
X6654143Y-8018014D01*
X6625571Y-8060871D01*
X6597000Y-8089443D01*
X6568428Y-8103728D01*
X6997000Y-8118014D02*
X6997000Y-8318014D01*
X6925571Y-8003728D02*
X6854143Y-8218014D01*
X7039857Y-8218014D01*
X7382714Y-8318014D02*
X7382714Y-8018014D01*
X7511286Y-8318014D02*
X7511286Y-8160871D01*
X7497000Y-8132300D01*
X7468428Y-8118014D01*
X7425571Y-8118014D01*
X7397000Y-8132300D01*
X7382714Y-8146586D01*
X7697000Y-8318014D02*
X7668428Y-8303728D01*
X7654143Y-8289443D01*
X7639857Y-8260871D01*
X7639857Y-8175157D01*
X7654143Y-8146586D01*
X7668428Y-8132300D01*
X7697000Y-8118014D01*
X7739857Y-8118014D01*
X7768428Y-8132300D01*
X7782714Y-8146586D01*
X7797000Y-8175157D01*
X7797000Y-8260871D01*
X7782714Y-8289443D01*
X7768428Y-8303728D01*
X7739857Y-8318014D01*
X7697000Y-8318014D01*
X7968428Y-8318014D02*
X7939857Y-8303728D01*
X7925571Y-8275157D01*
X7925571Y-8018014D01*
X8197000Y-8303728D02*
X8168428Y-8318014D01*
X8111286Y-8318014D01*
X8082714Y-8303728D01*
X8068428Y-8275157D01*
X8068428Y-8160871D01*
X8082714Y-8132300D01*
X8111286Y-8118014D01*
X8168428Y-8118014D01*
X8197000Y-8132300D01*
X8211286Y-8160871D01*
X8211286Y-8189443D01*
X8068428Y-8218014D01*
X8325571Y-8303728D02*
X8354143Y-8318014D01*
X8411286Y-8318014D01*
X8439857Y-8303728D01*
X8454143Y-8275157D01*
X8454143Y-8260871D01*
X8439857Y-8232300D01*
X8411286Y-8218014D01*
X8368428Y-8218014D01*
X8339857Y-8203728D01*
X8325571Y-8175157D01*
X8325571Y-8160871D01*
X8339857Y-8132300D01*
X8368428Y-8118014D01*
X8411286Y-8118014D01*
X8439857Y-8132300D01*
X8554143Y-8432300D02*
X8568429Y-8418014D01*
X8597000Y-8375157D01*
X8611286Y-8346586D01*
X8625571Y-8303728D01*
X8639857Y-8232300D01*
X8639857Y-8175157D01*
X8625571Y-8103728D01*
X8611286Y-8060871D01*
X8597000Y-8032300D01*
X8568429Y-7989443D01*
X8554143Y-7975157D01*
X1782000Y-8578300D02*
G75*
G03*
X1782000Y-8578300I-25000J0D01*
G01*
X2125571Y-8414014D02*
X2154143Y-8414014D01*
X2182714Y-8428300D01*
X2197000Y-8442586D01*
X2211286Y-8471157D01*
X2225571Y-8528300D01*
X2225571Y-8599729D01*
X2211286Y-8656871D01*
X2197000Y-8685443D01*
X2182714Y-8699729D01*
X2154143Y-8714014D01*
X2125571Y-8714014D01*
X2097000Y-8699729D01*
X2082714Y-8685443D01*
X2068428Y-8656871D01*
X2054143Y-8599729D01*
X2054143Y-8528300D01*
X2068428Y-8471157D01*
X2082714Y-8442586D01*
X2097000Y-8428300D01*
X2125571Y-8414014D01*
X2354143Y-8685443D02*
X2368429Y-8699729D01*
X2354143Y-8714014D01*
X2339857Y-8699729D01*
X2354143Y-8685443D01*
X2354143Y-8714014D01*
X2639857Y-8414014D02*
X2497000Y-8414014D01*
X2482714Y-8556871D01*
X2497000Y-8542586D01*
X2525571Y-8528300D01*
X2597000Y-8528300D01*
X2625571Y-8542586D01*
X2639857Y-8556871D01*
X2654143Y-8585443D01*
X2654143Y-8656871D01*
X2639857Y-8685443D01*
X2625571Y-8699729D01*
X2597000Y-8714014D01*
X2525571Y-8714014D01*
X2497000Y-8699729D01*
X2482714Y-8685443D01*
X2839857Y-8414014D02*
X2868428Y-8414014D01*
X2897000Y-8428300D01*
X2911286Y-8442586D01*
X2925571Y-8471157D01*
X2939857Y-8528300D01*
X2939857Y-8599729D01*
X2925571Y-8656871D01*
X2911286Y-8685443D01*
X2897000Y-8699729D01*
X2868428Y-8714014D01*
X2839857Y-8714014D01*
X2811286Y-8699729D01*
X2797000Y-8685443D01*
X2782714Y-8656871D01*
X2768429Y-8599729D01*
X2768429Y-8528300D01*
X2782714Y-8471157D01*
X2797000Y-8442586D01*
X2811286Y-8428300D01*
X2839857Y-8414014D01*
X3068428Y-8714014D02*
X3068428Y-8514014D01*
X3068428Y-8542586D02*
X3082714Y-8528300D01*
X3111286Y-8514014D01*
X3154143Y-8514014D01*
X3182714Y-8528300D01*
X3197000Y-8556871D01*
X3197000Y-8714014D01*
X3197000Y-8556871D02*
X3211286Y-8528300D01*
X3239857Y-8514014D01*
X3282714Y-8514014D01*
X3311286Y-8528300D01*
X3325571Y-8556871D01*
X3325571Y-8714014D01*
X3468428Y-8714014D02*
X3468428Y-8514014D01*
X3468428Y-8542586D02*
X3482714Y-8528300D01*
X3511286Y-8514014D01*
X3554143Y-8514014D01*
X3582714Y-8528300D01*
X3597000Y-8556871D01*
X3597000Y-8714014D01*
X3597000Y-8556871D02*
X3611286Y-8528300D01*
X3639857Y-8514014D01*
X3682714Y-8514014D01*
X3711286Y-8528300D01*
X3725571Y-8556871D01*
X3725571Y-8714014D01*
X4311286Y-8399729D02*
X4054143Y-8785443D01*
X4697000Y-8414014D02*
X4725571Y-8414014D01*
X4754143Y-8428300D01*
X4768429Y-8442586D01*
X4782714Y-8471157D01*
X4797000Y-8528300D01*
X4797000Y-8599729D01*
X4782714Y-8656871D01*
X4768429Y-8685443D01*
X4754143Y-8699729D01*
X4725571Y-8714014D01*
X4697000Y-8714014D01*
X4668429Y-8699729D01*
X4654143Y-8685443D01*
X4639857Y-8656871D01*
X4625571Y-8599729D01*
X4625571Y-8528300D01*
X4639857Y-8471157D01*
X4654143Y-8442586D01*
X4668429Y-8428300D01*
X4697000Y-8414014D01*
X4925571Y-8685443D02*
X4939857Y-8699729D01*
X4925571Y-8714014D01*
X4911286Y-8699729D01*
X4925571Y-8685443D01*
X4925571Y-8714014D01*
X5125571Y-8414014D02*
X5154143Y-8414014D01*
X5182714Y-8428300D01*
X5197000Y-8442586D01*
X5211286Y-8471157D01*
X5225571Y-8528300D01*
X5225571Y-8599729D01*
X5211286Y-8656871D01*
X5197000Y-8685443D01*
X5182714Y-8699729D01*
X5154143Y-8714014D01*
X5125571Y-8714014D01*
X5097000Y-8699729D01*
X5082714Y-8685443D01*
X5068429Y-8656871D01*
X5054143Y-8599729D01*
X5054143Y-8528300D01*
X5068429Y-8471157D01*
X5082714Y-8442586D01*
X5097000Y-8428300D01*
X5125571Y-8414014D01*
X5339857Y-8442586D02*
X5354143Y-8428300D01*
X5382714Y-8414014D01*
X5454143Y-8414014D01*
X5482714Y-8428300D01*
X5497000Y-8442586D01*
X5511286Y-8471157D01*
X5511286Y-8499729D01*
X5497000Y-8542586D01*
X5325571Y-8714014D01*
X5511286Y-8714014D01*
X5697000Y-8414014D02*
X5725571Y-8414014D01*
X5754143Y-8428300D01*
X5768428Y-8442586D01*
X5782714Y-8471157D01*
X5797000Y-8528300D01*
X5797000Y-8599729D01*
X5782714Y-8656871D01*
X5768428Y-8685443D01*
X5754143Y-8699729D01*
X5725571Y-8714014D01*
X5697000Y-8714014D01*
X5668428Y-8699729D01*
X5654143Y-8685443D01*
X5639857Y-8656871D01*
X5625571Y-8599729D01*
X5625571Y-8528300D01*
X5639857Y-8471157D01*
X5654143Y-8442586D01*
X5668428Y-8428300D01*
X5697000Y-8414014D01*
X5911286Y-8414014D02*
X5911286Y-8471157D01*
X6025571Y-8414014D02*
X6025571Y-8471157D01*
X6468428Y-8828300D02*
X6454143Y-8814014D01*
X6425571Y-8771157D01*
X6411286Y-8742586D01*
X6397000Y-8699729D01*
X6382714Y-8628300D01*
X6382714Y-8571157D01*
X6397000Y-8499729D01*
X6411286Y-8456871D01*
X6425571Y-8428300D01*
X6454143Y-8385443D01*
X6468428Y-8371157D01*
X6568428Y-8442586D02*
X6582714Y-8428300D01*
X6611286Y-8414014D01*
X6682714Y-8414014D01*
X6711286Y-8428300D01*
X6725571Y-8442586D01*
X6739857Y-8471157D01*
X6739857Y-8499729D01*
X6725571Y-8542586D01*
X6554143Y-8714014D01*
X6739857Y-8714014D01*
X7097000Y-8714014D02*
X7097000Y-8414014D01*
X7225571Y-8714014D02*
X7225571Y-8556871D01*
X7211286Y-8528300D01*
X7182714Y-8514014D01*
X7139857Y-8514014D01*
X7111286Y-8528300D01*
X7097000Y-8542586D01*
X7411286Y-8714014D02*
X7382714Y-8699729D01*
X7368428Y-8685443D01*
X7354143Y-8656871D01*
X7354143Y-8571157D01*
X7368428Y-8542586D01*
X7382714Y-8528300D01*
X7411286Y-8514014D01*
X7454143Y-8514014D01*
X7482714Y-8528300D01*
X7497000Y-8542586D01*
X7511286Y-8571157D01*
X7511286Y-8656871D01*
X7497000Y-8685443D01*
X7482714Y-8699729D01*
X7454143Y-8714014D01*
X7411286Y-8714014D01*
X7682714Y-8714014D02*
X7654143Y-8699729D01*
X7639857Y-8671157D01*
X7639857Y-8414014D01*
X7911286Y-8699729D02*
X7882714Y-8714014D01*
X7825571Y-8714014D01*
X7797000Y-8699729D01*
X7782714Y-8671157D01*
X7782714Y-8556871D01*
X7797000Y-8528300D01*
X7825571Y-8514014D01*
X7882714Y-8514014D01*
X7911286Y-8528300D01*
X7925571Y-8556871D01*
X7925571Y-8585443D01*
X7782714Y-8614014D01*
X8039857Y-8699729D02*
X8068428Y-8714014D01*
X8125571Y-8714014D01*
X8154143Y-8699729D01*
X8168428Y-8671157D01*
X8168428Y-8656871D01*
X8154143Y-8628300D01*
X8125571Y-8614014D01*
X8082714Y-8614014D01*
X8054143Y-8599729D01*
X8039857Y-8571157D01*
X8039857Y-8556871D01*
X8054143Y-8528300D01*
X8082714Y-8514014D01*
X8125571Y-8514014D01*
X8154143Y-8528300D01*
X8268428Y-8828300D02*
X8282714Y-8814014D01*
X8311286Y-8771157D01*
X8325571Y-8742586D01*
X8339857Y-8699729D01*
X8354143Y-8628300D01*
X8354143Y-8571157D01*
X8339857Y-8499729D01*
X8325571Y-8456871D01*
X8311286Y-8428300D01*
X8282714Y-8385443D01*
X8268428Y-8371157D01*
X1743900Y-8936200D02*
X1743900Y-9012400D01*
X1705800Y-8974300D02*
X1782000Y-8974300D01*
X2125571Y-8810014D02*
X2154143Y-8810014D01*
X2182714Y-8824300D01*
X2197000Y-8838586D01*
X2211286Y-8867157D01*
X2225571Y-8924300D01*
X2225571Y-8995729D01*
X2211286Y-9052871D01*
X2197000Y-9081443D01*
X2182714Y-9095729D01*
X2154143Y-9110014D01*
X2125571Y-9110014D01*
X2097000Y-9095729D01*
X2082714Y-9081443D01*
X2068428Y-9052871D01*
X2054143Y-8995729D01*
X2054143Y-8924300D01*
X2068428Y-8867157D01*
X2082714Y-8838586D01*
X2097000Y-8824300D01*
X2125571Y-8810014D01*
X2354143Y-9081443D02*
X2368429Y-9095729D01*
X2354143Y-9110014D01*
X2339857Y-9095729D01*
X2354143Y-9081443D01*
X2354143Y-9110014D01*
X2468429Y-8810014D02*
X2668429Y-8810014D01*
X2539857Y-9110014D01*
X2911286Y-8810014D02*
X2854143Y-8810014D01*
X2825571Y-8824300D01*
X2811286Y-8838586D01*
X2782714Y-8881443D01*
X2768429Y-8938586D01*
X2768429Y-9052871D01*
X2782714Y-9081443D01*
X2797000Y-9095729D01*
X2825571Y-9110014D01*
X2882714Y-9110014D01*
X2911286Y-9095729D01*
X2925571Y-9081443D01*
X2939857Y-9052871D01*
X2939857Y-8981443D01*
X2925571Y-8952871D01*
X2911286Y-8938586D01*
X2882714Y-8924300D01*
X2825571Y-8924300D01*
X2797000Y-8938586D01*
X2782714Y-8952871D01*
X2768429Y-8981443D01*
X3068428Y-9110014D02*
X3068428Y-8910014D01*
X3068428Y-8938586D02*
X3082714Y-8924300D01*
X3111286Y-8910014D01*
X3154143Y-8910014D01*
X3182714Y-8924300D01*
X3197000Y-8952871D01*
X3197000Y-9110014D01*
X3197000Y-8952871D02*
X3211286Y-8924300D01*
X3239857Y-8910014D01*
X3282714Y-8910014D01*
X3311286Y-8924300D01*
X3325571Y-8952871D01*
X3325571Y-9110014D01*
X3468428Y-9110014D02*
X3468428Y-8910014D01*
X3468428Y-8938586D02*
X3482714Y-8924300D01*
X3511286Y-8910014D01*
X3554143Y-8910014D01*
X3582714Y-8924300D01*
X3597000Y-8952871D01*
X3597000Y-9110014D01*
X3597000Y-8952871D02*
X3611286Y-8924300D01*
X3639857Y-8910014D01*
X3682714Y-8910014D01*
X3711286Y-8924300D01*
X3725571Y-8952871D01*
X3725571Y-9110014D01*
X4311286Y-8795729D02*
X4054143Y-9181443D01*
X4697000Y-8810014D02*
X4725571Y-8810014D01*
X4754143Y-8824300D01*
X4768429Y-8838586D01*
X4782714Y-8867157D01*
X4797000Y-8924300D01*
X4797000Y-8995729D01*
X4782714Y-9052871D01*
X4768429Y-9081443D01*
X4754143Y-9095729D01*
X4725571Y-9110014D01*
X4697000Y-9110014D01*
X4668429Y-9095729D01*
X4654143Y-9081443D01*
X4639857Y-9052871D01*
X4625571Y-8995729D01*
X4625571Y-8924300D01*
X4639857Y-8867157D01*
X4654143Y-8838586D01*
X4668429Y-8824300D01*
X4697000Y-8810014D01*
X4925571Y-9081443D02*
X4939857Y-9095729D01*
X4925571Y-9110014D01*
X4911286Y-9095729D01*
X4925571Y-9081443D01*
X4925571Y-9110014D01*
X5125571Y-8810014D02*
X5154143Y-8810014D01*
X5182714Y-8824300D01*
X5197000Y-8838586D01*
X5211286Y-8867157D01*
X5225571Y-8924300D01*
X5225571Y-8995729D01*
X5211286Y-9052871D01*
X5197000Y-9081443D01*
X5182714Y-9095729D01*
X5154143Y-9110014D01*
X5125571Y-9110014D01*
X5097000Y-9095729D01*
X5082714Y-9081443D01*
X5068429Y-9052871D01*
X5054143Y-8995729D01*
X5054143Y-8924300D01*
X5068429Y-8867157D01*
X5082714Y-8838586D01*
X5097000Y-8824300D01*
X5125571Y-8810014D01*
X5325571Y-8810014D02*
X5511286Y-8810014D01*
X5411286Y-8924300D01*
X5454143Y-8924300D01*
X5482714Y-8938586D01*
X5497000Y-8952871D01*
X5511286Y-8981443D01*
X5511286Y-9052871D01*
X5497000Y-9081443D01*
X5482714Y-9095729D01*
X5454143Y-9110014D01*
X5368429Y-9110014D01*
X5339857Y-9095729D01*
X5325571Y-9081443D01*
X5697000Y-8810014D02*
X5725571Y-8810014D01*
X5754143Y-8824300D01*
X5768428Y-8838586D01*
X5782714Y-8867157D01*
X5797000Y-8924300D01*
X5797000Y-8995729D01*
X5782714Y-9052871D01*
X5768428Y-9081443D01*
X5754143Y-9095729D01*
X5725571Y-9110014D01*
X5697000Y-9110014D01*
X5668428Y-9095729D01*
X5654143Y-9081443D01*
X5639857Y-9052871D01*
X5625571Y-8995729D01*
X5625571Y-8924300D01*
X5639857Y-8867157D01*
X5654143Y-8838586D01*
X5668428Y-8824300D01*
X5697000Y-8810014D01*
X5911286Y-8810014D02*
X5911286Y-8867157D01*
X6025571Y-8810014D02*
X6025571Y-8867157D01*
X6468428Y-9224300D02*
X6454143Y-9210014D01*
X6425571Y-9167157D01*
X6411286Y-9138586D01*
X6397000Y-9095729D01*
X6382714Y-9024300D01*
X6382714Y-8967157D01*
X6397000Y-8895729D01*
X6411286Y-8852871D01*
X6425571Y-8824300D01*
X6454143Y-8781443D01*
X6468428Y-8767157D01*
X6725571Y-8810014D02*
X6582714Y-8810014D01*
X6568428Y-8952871D01*
X6582714Y-8938586D01*
X6611286Y-8924300D01*
X6682714Y-8924300D01*
X6711286Y-8938586D01*
X6725571Y-8952871D01*
X6739857Y-8981443D01*
X6739857Y-9052871D01*
X6725571Y-9081443D01*
X6711286Y-9095729D01*
X6682714Y-9110014D01*
X6611286Y-9110014D01*
X6582714Y-9095729D01*
X6568428Y-9081443D01*
X6997000Y-8910014D02*
X6997000Y-9110014D01*
X6925571Y-8795729D02*
X6854143Y-9010014D01*
X7039857Y-9010014D01*
X7382714Y-9110014D02*
X7382714Y-8810014D01*
X7511286Y-9110014D02*
X7511286Y-8952871D01*
X7497000Y-8924300D01*
X7468428Y-8910014D01*
X7425571Y-8910014D01*
X7397000Y-8924300D01*
X7382714Y-8938586D01*
X7697000Y-9110014D02*
X7668428Y-9095729D01*
X7654143Y-9081443D01*
X7639857Y-9052871D01*
X7639857Y-8967157D01*
X7654143Y-8938586D01*
X7668428Y-8924300D01*
X7697000Y-8910014D01*
X7739857Y-8910014D01*
X7768428Y-8924300D01*
X7782714Y-8938586D01*
X7797000Y-8967157D01*
X7797000Y-9052871D01*
X7782714Y-9081443D01*
X7768428Y-9095729D01*
X7739857Y-9110014D01*
X7697000Y-9110014D01*
X7968428Y-9110014D02*
X7939857Y-9095729D01*
X7925571Y-9067157D01*
X7925571Y-8810014D01*
X8197000Y-9095729D02*
X8168428Y-9110014D01*
X8111286Y-9110014D01*
X8082714Y-9095729D01*
X8068428Y-9067157D01*
X8068428Y-8952871D01*
X8082714Y-8924300D01*
X8111286Y-8910014D01*
X8168428Y-8910014D01*
X8197000Y-8924300D01*
X8211286Y-8952871D01*
X8211286Y-8981443D01*
X8068428Y-9010014D01*
X8325571Y-9095729D02*
X8354143Y-9110014D01*
X8411286Y-9110014D01*
X8439857Y-9095729D01*
X8454143Y-9067157D01*
X8454143Y-9052871D01*
X8439857Y-9024300D01*
X8411286Y-9010014D01*
X8368428Y-9010014D01*
X8339857Y-8995729D01*
X8325571Y-8967157D01*
X8325571Y-8952871D01*
X8339857Y-8924300D01*
X8368428Y-8910014D01*
X8411286Y-8910014D01*
X8439857Y-8924300D01*
X8554143Y-9224300D02*
X8568429Y-9210014D01*
X8597000Y-9167157D01*
X8611286Y-9138586D01*
X8625571Y-9095729D01*
X8639857Y-9024300D01*
X8639857Y-8967157D01*
X8625571Y-8895729D01*
X8611286Y-8852871D01*
X8597000Y-8824300D01*
X8568429Y-8781443D01*
X8554143Y-8767157D01*
X1770284Y-9398585D02*
X1770284Y-9342016D01*
X1713715Y-9342016D01*
X1713715Y-9398585D01*
X1770284Y-9398585D01*
X2125571Y-9206014D02*
X2154143Y-9206014D01*
X2182714Y-9220300D01*
X2197000Y-9234586D01*
X2211286Y-9263157D01*
X2225571Y-9320300D01*
X2225571Y-9391729D01*
X2211286Y-9448871D01*
X2197000Y-9477443D01*
X2182714Y-9491729D01*
X2154143Y-9506014D01*
X2125571Y-9506014D01*
X2097000Y-9491729D01*
X2082714Y-9477443D01*
X2068428Y-9448871D01*
X2054143Y-9391729D01*
X2054143Y-9320300D01*
X2068428Y-9263157D01*
X2082714Y-9234586D01*
X2097000Y-9220300D01*
X2125571Y-9206014D01*
X2354143Y-9477443D02*
X2368429Y-9491729D01*
X2354143Y-9506014D01*
X2339857Y-9491729D01*
X2354143Y-9477443D01*
X2354143Y-9506014D01*
X2539857Y-9334586D02*
X2511286Y-9320300D01*
X2497000Y-9306014D01*
X2482714Y-9277443D01*
X2482714Y-9263157D01*
X2497000Y-9234586D01*
X2511286Y-9220300D01*
X2539857Y-9206014D01*
X2597000Y-9206014D01*
X2625571Y-9220300D01*
X2639857Y-9234586D01*
X2654143Y-9263157D01*
X2654143Y-9277443D01*
X2639857Y-9306014D01*
X2625571Y-9320300D01*
X2597000Y-9334586D01*
X2539857Y-9334586D01*
X2511286Y-9348871D01*
X2497000Y-9363157D01*
X2482714Y-9391729D01*
X2482714Y-9448871D01*
X2497000Y-9477443D01*
X2511286Y-9491729D01*
X2539857Y-9506014D01*
X2597000Y-9506014D01*
X2625571Y-9491729D01*
X2639857Y-9477443D01*
X2654143Y-9448871D01*
X2654143Y-9391729D01*
X2639857Y-9363157D01*
X2625571Y-9348871D01*
X2597000Y-9334586D01*
X2839857Y-9206014D02*
X2868428Y-9206014D01*
X2897000Y-9220300D01*
X2911286Y-9234586D01*
X2925571Y-9263157D01*
X2939857Y-9320300D01*
X2939857Y-9391729D01*
X2925571Y-9448871D01*
X2911286Y-9477443D01*
X2897000Y-9491729D01*
X2868428Y-9506014D01*
X2839857Y-9506014D01*
X2811286Y-9491729D01*
X2797000Y-9477443D01*
X2782714Y-9448871D01*
X2768429Y-9391729D01*
X2768429Y-9320300D01*
X2782714Y-9263157D01*
X2797000Y-9234586D01*
X2811286Y-9220300D01*
X2839857Y-9206014D01*
X3068428Y-9506014D02*
X3068428Y-9306014D01*
X3068428Y-9334586D02*
X3082714Y-9320300D01*
X3111286Y-9306014D01*
X3154143Y-9306014D01*
X3182714Y-9320300D01*
X3197000Y-9348871D01*
X3197000Y-9506014D01*
X3197000Y-9348871D02*
X3211286Y-9320300D01*
X3239857Y-9306014D01*
X3282714Y-9306014D01*
X3311286Y-9320300D01*
X3325571Y-9348871D01*
X3325571Y-9506014D01*
X3468428Y-9506014D02*
X3468428Y-9306014D01*
X3468428Y-9334586D02*
X3482714Y-9320300D01*
X3511286Y-9306014D01*
X3554143Y-9306014D01*
X3582714Y-9320300D01*
X3597000Y-9348871D01*
X3597000Y-9506014D01*
X3597000Y-9348871D02*
X3611286Y-9320300D01*
X3639857Y-9306014D01*
X3682714Y-9306014D01*
X3711286Y-9320300D01*
X3725571Y-9348871D01*
X3725571Y-9506014D01*
X4311286Y-9191729D02*
X4054143Y-9577443D01*
X4697000Y-9206014D02*
X4725571Y-9206014D01*
X4754143Y-9220300D01*
X4768429Y-9234586D01*
X4782714Y-9263157D01*
X4797000Y-9320300D01*
X4797000Y-9391729D01*
X4782714Y-9448871D01*
X4768429Y-9477443D01*
X4754143Y-9491729D01*
X4725571Y-9506014D01*
X4697000Y-9506014D01*
X4668429Y-9491729D01*
X4654143Y-9477443D01*
X4639857Y-9448871D01*
X4625571Y-9391729D01*
X4625571Y-9320300D01*
X4639857Y-9263157D01*
X4654143Y-9234586D01*
X4668429Y-9220300D01*
X4697000Y-9206014D01*
X4925571Y-9477443D02*
X4939857Y-9491729D01*
X4925571Y-9506014D01*
X4911286Y-9491729D01*
X4925571Y-9477443D01*
X4925571Y-9506014D01*
X5125571Y-9206014D02*
X5154143Y-9206014D01*
X5182714Y-9220300D01*
X5197000Y-9234586D01*
X5211286Y-9263157D01*
X5225571Y-9320300D01*
X5225571Y-9391729D01*
X5211286Y-9448871D01*
X5197000Y-9477443D01*
X5182714Y-9491729D01*
X5154143Y-9506014D01*
X5125571Y-9506014D01*
X5097000Y-9491729D01*
X5082714Y-9477443D01*
X5068429Y-9448871D01*
X5054143Y-9391729D01*
X5054143Y-9320300D01*
X5068429Y-9263157D01*
X5082714Y-9234586D01*
X5097000Y-9220300D01*
X5125571Y-9206014D01*
X5325571Y-9206014D02*
X5511286Y-9206014D01*
X5411286Y-9320300D01*
X5454143Y-9320300D01*
X5482714Y-9334586D01*
X5497000Y-9348871D01*
X5511286Y-9377443D01*
X5511286Y-9448871D01*
X5497000Y-9477443D01*
X5482714Y-9491729D01*
X5454143Y-9506014D01*
X5368429Y-9506014D01*
X5339857Y-9491729D01*
X5325571Y-9477443D01*
X5797000Y-9506014D02*
X5625571Y-9506014D01*
X5711286Y-9506014D02*
X5711286Y-9206014D01*
X5682714Y-9248871D01*
X5654143Y-9277443D01*
X5625571Y-9291729D01*
X5911286Y-9206014D02*
X5911286Y-9263157D01*
X6025571Y-9206014D02*
X6025571Y-9263157D01*
X6468428Y-9620300D02*
X6454143Y-9606014D01*
X6425571Y-9563157D01*
X6411286Y-9534586D01*
X6397000Y-9491729D01*
X6382714Y-9420300D01*
X6382714Y-9363157D01*
X6397000Y-9291729D01*
X6411286Y-9248871D01*
X6425571Y-9220300D01*
X6454143Y-9177443D01*
X6468428Y-9163157D01*
X6739857Y-9506014D02*
X6568428Y-9506014D01*
X6654143Y-9506014D02*
X6654143Y-9206014D01*
X6625571Y-9248871D01*
X6597000Y-9277443D01*
X6568428Y-9291729D01*
X6854143Y-9234586D02*
X6868428Y-9220300D01*
X6897000Y-9206014D01*
X6968428Y-9206014D01*
X6997000Y-9220300D01*
X7011286Y-9234586D01*
X7025571Y-9263157D01*
X7025571Y-9291729D01*
X7011286Y-9334586D01*
X6839857Y-9506014D01*
X7025571Y-9506014D01*
X7282714Y-9206014D02*
X7225571Y-9206014D01*
X7197000Y-9220300D01*
X7182714Y-9234586D01*
X7154143Y-9277443D01*
X7139857Y-9334586D01*
X7139857Y-9448871D01*
X7154143Y-9477443D01*
X7168428Y-9491729D01*
X7197000Y-9506014D01*
X7254143Y-9506014D01*
X7282714Y-9491729D01*
X7297000Y-9477443D01*
X7311286Y-9448871D01*
X7311286Y-9377443D01*
X7297000Y-9348871D01*
X7282714Y-9334586D01*
X7254143Y-9320300D01*
X7197000Y-9320300D01*
X7168428Y-9334586D01*
X7154143Y-9348871D01*
X7139857Y-9377443D01*
X7668428Y-9506014D02*
X7668428Y-9206014D01*
X7797000Y-9506014D02*
X7797000Y-9348871D01*
X7782714Y-9320300D01*
X7754143Y-9306014D01*
X7711286Y-9306014D01*
X7682714Y-9320300D01*
X7668428Y-9334586D01*
X7982714Y-9506014D02*
X7954143Y-9491729D01*
X7939857Y-9477443D01*
X7925571Y-9448871D01*
X7925571Y-9363157D01*
X7939857Y-9334586D01*
X7954143Y-9320300D01*
X7982714Y-9306014D01*
X8025571Y-9306014D01*
X8054143Y-9320300D01*
X8068428Y-9334586D01*
X8082714Y-9363157D01*
X8082714Y-9448871D01*
X8068428Y-9477443D01*
X8054143Y-9491729D01*
X8025571Y-9506014D01*
X7982714Y-9506014D01*
X8254143Y-9506014D02*
X8225571Y-9491729D01*
X8211286Y-9463157D01*
X8211286Y-9206014D01*
X8482714Y-9491729D02*
X8454143Y-9506014D01*
X8397000Y-9506014D01*
X8368428Y-9491729D01*
X8354143Y-9463157D01*
X8354143Y-9348871D01*
X8368428Y-9320300D01*
X8397000Y-9306014D01*
X8454143Y-9306014D01*
X8482714Y-9320300D01*
X8497000Y-9348871D01*
X8497000Y-9377443D01*
X8354143Y-9406014D01*
X8611286Y-9491729D02*
X8639857Y-9506014D01*
X8697000Y-9506014D01*
X8725571Y-9491729D01*
X8739857Y-9463157D01*
X8739857Y-9448871D01*
X8725571Y-9420300D01*
X8697000Y-9406014D01*
X8654143Y-9406014D01*
X8625571Y-9391729D01*
X8611286Y-9363157D01*
X8611286Y-9348871D01*
X8625571Y-9320300D01*
X8654143Y-9306014D01*
X8697000Y-9306014D01*
X8725571Y-9320300D01*
X8839857Y-9620300D02*
X8854143Y-9606014D01*
X8882714Y-9563157D01*
X8897000Y-9534586D01*
X8911286Y-9491729D01*
X8925571Y-9420300D01*
X8925571Y-9363157D01*
X8911286Y-9291729D01*
X8897000Y-9248871D01*
X8882714Y-9220300D01*
X8854143Y-9177443D01*
X8839857Y-9163157D01*
X1737000Y-9811300D02*
X1782000Y-9766300D01*
X1737000Y-9721300D01*
X1692000Y-9766300D01*
X1737000Y-9811300D01*
X2125571Y-9602014D02*
X2154143Y-9602014D01*
X2182714Y-9616300D01*
X2197000Y-9630586D01*
X2211286Y-9659157D01*
X2225571Y-9716300D01*
X2225571Y-9787729D01*
X2211286Y-9844871D01*
X2197000Y-9873443D01*
X2182714Y-9887729D01*
X2154143Y-9902014D01*
X2125571Y-9902014D01*
X2097000Y-9887729D01*
X2082714Y-9873443D01*
X2068428Y-9844871D01*
X2054143Y-9787729D01*
X2054143Y-9716300D01*
X2068428Y-9659157D01*
X2082714Y-9630586D01*
X2097000Y-9616300D01*
X2125571Y-9602014D01*
X2354143Y-9873443D02*
X2368429Y-9887729D01*
X2354143Y-9902014D01*
X2339857Y-9887729D01*
X2354143Y-9873443D01*
X2354143Y-9902014D01*
X2511286Y-9902014D02*
X2568429Y-9902014D01*
X2597000Y-9887729D01*
X2611286Y-9873443D01*
X2639857Y-9830586D01*
X2654143Y-9773443D01*
X2654143Y-9659157D01*
X2639857Y-9630586D01*
X2625571Y-9616300D01*
X2597000Y-9602014D01*
X2539857Y-9602014D01*
X2511286Y-9616300D01*
X2497000Y-9630586D01*
X2482714Y-9659157D01*
X2482714Y-9730586D01*
X2497000Y-9759157D01*
X2511286Y-9773443D01*
X2539857Y-9787729D01*
X2597000Y-9787729D01*
X2625571Y-9773443D01*
X2639857Y-9759157D01*
X2654143Y-9730586D01*
X2839857Y-9602014D02*
X2868428Y-9602014D01*
X2897000Y-9616300D01*
X2911286Y-9630586D01*
X2925571Y-9659157D01*
X2939857Y-9716300D01*
X2939857Y-9787729D01*
X2925571Y-9844871D01*
X2911286Y-9873443D01*
X2897000Y-9887729D01*
X2868428Y-9902014D01*
X2839857Y-9902014D01*
X2811286Y-9887729D01*
X2797000Y-9873443D01*
X2782714Y-9844871D01*
X2768429Y-9787729D01*
X2768429Y-9716300D01*
X2782714Y-9659157D01*
X2797000Y-9630586D01*
X2811286Y-9616300D01*
X2839857Y-9602014D01*
X3068428Y-9902014D02*
X3068428Y-9702014D01*
X3068428Y-9730586D02*
X3082714Y-9716300D01*
X3111286Y-9702014D01*
X3154143Y-9702014D01*
X3182714Y-9716300D01*
X3197000Y-9744871D01*
X3197000Y-9902014D01*
X3197000Y-9744871D02*
X3211286Y-9716300D01*
X3239857Y-9702014D01*
X3282714Y-9702014D01*
X3311286Y-9716300D01*
X3325571Y-9744871D01*
X3325571Y-9902014D01*
X3468428Y-9902014D02*
X3468428Y-9702014D01*
X3468428Y-9730586D02*
X3482714Y-9716300D01*
X3511286Y-9702014D01*
X3554143Y-9702014D01*
X3582714Y-9716300D01*
X3597000Y-9744871D01*
X3597000Y-9902014D01*
X3597000Y-9744871D02*
X3611286Y-9716300D01*
X3639857Y-9702014D01*
X3682714Y-9702014D01*
X3711286Y-9716300D01*
X3725571Y-9744871D01*
X3725571Y-9902014D01*
X4311286Y-9587729D02*
X4054143Y-9973443D01*
X4697000Y-9602014D02*
X4725571Y-9602014D01*
X4754143Y-9616300D01*
X4768429Y-9630586D01*
X4782714Y-9659157D01*
X4797000Y-9716300D01*
X4797000Y-9787729D01*
X4782714Y-9844871D01*
X4768429Y-9873443D01*
X4754143Y-9887729D01*
X4725571Y-9902014D01*
X4697000Y-9902014D01*
X4668429Y-9887729D01*
X4654143Y-9873443D01*
X4639857Y-9844871D01*
X4625571Y-9787729D01*
X4625571Y-9716300D01*
X4639857Y-9659157D01*
X4654143Y-9630586D01*
X4668429Y-9616300D01*
X4697000Y-9602014D01*
X4925571Y-9873443D02*
X4939857Y-9887729D01*
X4925571Y-9902014D01*
X4911286Y-9887729D01*
X4925571Y-9873443D01*
X4925571Y-9902014D01*
X5125571Y-9602014D02*
X5154143Y-9602014D01*
X5182714Y-9616300D01*
X5197000Y-9630586D01*
X5211286Y-9659157D01*
X5225571Y-9716300D01*
X5225571Y-9787729D01*
X5211286Y-9844871D01*
X5197000Y-9873443D01*
X5182714Y-9887729D01*
X5154143Y-9902014D01*
X5125571Y-9902014D01*
X5097000Y-9887729D01*
X5082714Y-9873443D01*
X5068429Y-9844871D01*
X5054143Y-9787729D01*
X5054143Y-9716300D01*
X5068429Y-9659157D01*
X5082714Y-9630586D01*
X5097000Y-9616300D01*
X5125571Y-9602014D01*
X5325571Y-9602014D02*
X5511286Y-9602014D01*
X5411286Y-9716300D01*
X5454143Y-9716300D01*
X5482714Y-9730586D01*
X5497000Y-9744871D01*
X5511286Y-9773443D01*
X5511286Y-9844871D01*
X5497000Y-9873443D01*
X5482714Y-9887729D01*
X5454143Y-9902014D01*
X5368429Y-9902014D01*
X5339857Y-9887729D01*
X5325571Y-9873443D01*
X5782714Y-9602014D02*
X5639857Y-9602014D01*
X5625571Y-9744871D01*
X5639857Y-9730586D01*
X5668428Y-9716300D01*
X5739857Y-9716300D01*
X5768428Y-9730586D01*
X5782714Y-9744871D01*
X5797000Y-9773443D01*
X5797000Y-9844871D01*
X5782714Y-9873443D01*
X5768428Y-9887729D01*
X5739857Y-9902014D01*
X5668428Y-9902014D01*
X5639857Y-9887729D01*
X5625571Y-9873443D01*
X5911286Y-9602014D02*
X5911286Y-9659157D01*
X6025571Y-9602014D02*
X6025571Y-9659157D01*
X6468428Y-10016300D02*
X6454143Y-10002014D01*
X6425571Y-9959157D01*
X6411286Y-9930586D01*
X6397000Y-9887729D01*
X6382714Y-9816300D01*
X6382714Y-9759157D01*
X6397000Y-9687729D01*
X6411286Y-9644871D01*
X6425571Y-9616300D01*
X6454143Y-9573443D01*
X6468428Y-9559157D01*
X6568428Y-9630586D02*
X6582714Y-9616300D01*
X6611286Y-9602014D01*
X6682714Y-9602014D01*
X6711286Y-9616300D01*
X6725571Y-9630586D01*
X6739857Y-9659157D01*
X6739857Y-9687729D01*
X6725571Y-9730586D01*
X6554143Y-9902014D01*
X6739857Y-9902014D01*
X7097000Y-9902014D02*
X7097000Y-9602014D01*
X7225571Y-9902014D02*
X7225571Y-9744871D01*
X7211286Y-9716300D01*
X7182714Y-9702014D01*
X7139857Y-9702014D01*
X7111286Y-9716300D01*
X7097000Y-9730586D01*
X7411286Y-9902014D02*
X7382714Y-9887729D01*
X7368428Y-9873443D01*
X7354143Y-9844871D01*
X7354143Y-9759157D01*
X7368428Y-9730586D01*
X7382714Y-9716300D01*
X7411286Y-9702014D01*
X7454143Y-9702014D01*
X7482714Y-9716300D01*
X7497000Y-9730586D01*
X7511286Y-9759157D01*
X7511286Y-9844871D01*
X7497000Y-9873443D01*
X7482714Y-9887729D01*
X7454143Y-9902014D01*
X7411286Y-9902014D01*
X7682714Y-9902014D02*
X7654143Y-9887729D01*
X7639857Y-9859157D01*
X7639857Y-9602014D01*
X7911286Y-9887729D02*
X7882714Y-9902014D01*
X7825571Y-9902014D01*
X7797000Y-9887729D01*
X7782714Y-9859157D01*
X7782714Y-9744871D01*
X7797000Y-9716300D01*
X7825571Y-9702014D01*
X7882714Y-9702014D01*
X7911286Y-9716300D01*
X7925571Y-9744871D01*
X7925571Y-9773443D01*
X7782714Y-9802014D01*
X8039857Y-9887729D02*
X8068428Y-9902014D01*
X8125571Y-9902014D01*
X8154143Y-9887729D01*
X8168428Y-9859157D01*
X8168428Y-9844871D01*
X8154143Y-9816300D01*
X8125571Y-9802014D01*
X8082714Y-9802014D01*
X8054143Y-9787729D01*
X8039857Y-9759157D01*
X8039857Y-9744871D01*
X8054143Y-9716300D01*
X8082714Y-9702014D01*
X8125571Y-9702014D01*
X8154143Y-9716300D01*
X8268428Y-10016300D02*
X8282714Y-10002014D01*
X8311286Y-9959157D01*
X8325571Y-9930586D01*
X8339857Y-9887729D01*
X8354143Y-9816300D01*
X8354143Y-9759157D01*
X8339857Y-9687729D01*
X8325571Y-9644871D01*
X8311286Y-9616300D01*
X8282714Y-9573443D01*
X8268428Y-9559157D01*
X1682000Y-10112300D02*
X1782000Y-10212300D01*
X1782000Y-10112300D02*
X1682000Y-10212300D01*
X1782000Y-10162300D02*
G75*
G03*
X1782000Y-10162300I-50000J0D01*
G01*
X2225571Y-10298014D02*
X2054143Y-10298014D01*
X2139857Y-10298014D02*
X2139857Y-9998014D01*
X2111286Y-10040871D01*
X2082714Y-10069443D01*
X2054143Y-10083729D01*
X2354143Y-10269443D02*
X2368429Y-10283729D01*
X2354143Y-10298014D01*
X2339857Y-10283729D01*
X2354143Y-10269443D01*
X2354143Y-10298014D01*
X2554143Y-9998014D02*
X2582714Y-9998014D01*
X2611286Y-10012300D01*
X2625571Y-10026586D01*
X2639857Y-10055157D01*
X2654143Y-10112300D01*
X2654143Y-10183729D01*
X2639857Y-10240871D01*
X2625571Y-10269443D01*
X2611286Y-10283729D01*
X2582714Y-10298014D01*
X2554143Y-10298014D01*
X2525571Y-10283729D01*
X2511286Y-10269443D01*
X2497000Y-10240871D01*
X2482714Y-10183729D01*
X2482714Y-10112300D01*
X2497000Y-10055157D01*
X2511286Y-10026586D01*
X2525571Y-10012300D01*
X2554143Y-9998014D01*
X2839857Y-9998014D02*
X2868428Y-9998014D01*
X2897000Y-10012300D01*
X2911286Y-10026586D01*
X2925571Y-10055157D01*
X2939857Y-10112300D01*
X2939857Y-10183729D01*
X2925571Y-10240871D01*
X2911286Y-10269443D01*
X2897000Y-10283729D01*
X2868428Y-10298014D01*
X2839857Y-10298014D01*
X2811286Y-10283729D01*
X2797000Y-10269443D01*
X2782714Y-10240871D01*
X2768429Y-10183729D01*
X2768429Y-10112300D01*
X2782714Y-10055157D01*
X2797000Y-10026586D01*
X2811286Y-10012300D01*
X2839857Y-9998014D01*
X3068428Y-10298014D02*
X3068428Y-10098014D01*
X3068428Y-10126586D02*
X3082714Y-10112300D01*
X3111286Y-10098014D01*
X3154143Y-10098014D01*
X3182714Y-10112300D01*
X3197000Y-10140871D01*
X3197000Y-10298014D01*
X3197000Y-10140871D02*
X3211286Y-10112300D01*
X3239857Y-10098014D01*
X3282714Y-10098014D01*
X3311286Y-10112300D01*
X3325571Y-10140871D01*
X3325571Y-10298014D01*
X3468428Y-10298014D02*
X3468428Y-10098014D01*
X3468428Y-10126586D02*
X3482714Y-10112300D01*
X3511286Y-10098014D01*
X3554143Y-10098014D01*
X3582714Y-10112300D01*
X3597000Y-10140871D01*
X3597000Y-10298014D01*
X3597000Y-10140871D02*
X3611286Y-10112300D01*
X3639857Y-10098014D01*
X3682714Y-10098014D01*
X3711286Y-10112300D01*
X3725571Y-10140871D01*
X3725571Y-10298014D01*
X4311286Y-9983729D02*
X4054143Y-10369443D01*
X4697000Y-9998014D02*
X4725571Y-9998014D01*
X4754143Y-10012300D01*
X4768429Y-10026586D01*
X4782714Y-10055157D01*
X4797000Y-10112300D01*
X4797000Y-10183729D01*
X4782714Y-10240871D01*
X4768429Y-10269443D01*
X4754143Y-10283729D01*
X4725571Y-10298014D01*
X4697000Y-10298014D01*
X4668429Y-10283729D01*
X4654143Y-10269443D01*
X4639857Y-10240871D01*
X4625571Y-10183729D01*
X4625571Y-10112300D01*
X4639857Y-10055157D01*
X4654143Y-10026586D01*
X4668429Y-10012300D01*
X4697000Y-9998014D01*
X4925571Y-10269443D02*
X4939857Y-10283729D01*
X4925571Y-10298014D01*
X4911286Y-10283729D01*
X4925571Y-10269443D01*
X4925571Y-10298014D01*
X5125571Y-9998014D02*
X5154143Y-9998014D01*
X5182714Y-10012300D01*
X5197000Y-10026586D01*
X5211286Y-10055157D01*
X5225571Y-10112300D01*
X5225571Y-10183729D01*
X5211286Y-10240871D01*
X5197000Y-10269443D01*
X5182714Y-10283729D01*
X5154143Y-10298014D01*
X5125571Y-10298014D01*
X5097000Y-10283729D01*
X5082714Y-10269443D01*
X5068429Y-10240871D01*
X5054143Y-10183729D01*
X5054143Y-10112300D01*
X5068429Y-10055157D01*
X5082714Y-10026586D01*
X5097000Y-10012300D01*
X5125571Y-9998014D01*
X5325571Y-9998014D02*
X5511286Y-9998014D01*
X5411286Y-10112300D01*
X5454143Y-10112300D01*
X5482714Y-10126586D01*
X5497000Y-10140871D01*
X5511286Y-10169443D01*
X5511286Y-10240871D01*
X5497000Y-10269443D01*
X5482714Y-10283729D01*
X5454143Y-10298014D01*
X5368429Y-10298014D01*
X5339857Y-10283729D01*
X5325571Y-10269443D01*
X5654143Y-10298014D02*
X5711286Y-10298014D01*
X5739857Y-10283729D01*
X5754143Y-10269443D01*
X5782714Y-10226586D01*
X5797000Y-10169443D01*
X5797000Y-10055157D01*
X5782714Y-10026586D01*
X5768428Y-10012300D01*
X5739857Y-9998014D01*
X5682714Y-9998014D01*
X5654143Y-10012300D01*
X5639857Y-10026586D01*
X5625571Y-10055157D01*
X5625571Y-10126586D01*
X5639857Y-10155157D01*
X5654143Y-10169443D01*
X5682714Y-10183729D01*
X5739857Y-10183729D01*
X5768428Y-10169443D01*
X5782714Y-10155157D01*
X5797000Y-10126586D01*
X5911286Y-9998014D02*
X5911286Y-10055157D01*
X6025571Y-9998014D02*
X6025571Y-10055157D01*
X6468428Y-10412300D02*
X6454143Y-10398014D01*
X6425571Y-10355157D01*
X6411286Y-10326586D01*
X6397000Y-10283729D01*
X6382714Y-10212300D01*
X6382714Y-10155157D01*
X6397000Y-10083729D01*
X6411286Y-10040871D01*
X6425571Y-10012300D01*
X6454143Y-9969443D01*
X6468428Y-9955157D01*
X6711286Y-9998014D02*
X6654143Y-9998014D01*
X6625571Y-10012300D01*
X6611286Y-10026586D01*
X6582714Y-10069443D01*
X6568428Y-10126586D01*
X6568428Y-10240871D01*
X6582714Y-10269443D01*
X6597000Y-10283729D01*
X6625571Y-10298014D01*
X6682714Y-10298014D01*
X6711286Y-10283729D01*
X6725571Y-10269443D01*
X6739857Y-10240871D01*
X6739857Y-10169443D01*
X6725571Y-10140871D01*
X6711286Y-10126586D01*
X6682714Y-10112300D01*
X6625571Y-10112300D01*
X6597000Y-10126586D01*
X6582714Y-10140871D01*
X6568428Y-10169443D01*
X6911286Y-10126586D02*
X6882714Y-10112300D01*
X6868428Y-10098014D01*
X6854143Y-10069443D01*
X6854143Y-10055157D01*
X6868428Y-10026586D01*
X6882714Y-10012300D01*
X6911286Y-9998014D01*
X6968428Y-9998014D01*
X6997000Y-10012300D01*
X7011286Y-10026586D01*
X7025571Y-10055157D01*
X7025571Y-10069443D01*
X7011286Y-10098014D01*
X6997000Y-10112300D01*
X6968428Y-10126586D01*
X6911286Y-10126586D01*
X6882714Y-10140871D01*
X6868428Y-10155157D01*
X6854143Y-10183729D01*
X6854143Y-10240871D01*
X6868428Y-10269443D01*
X6882714Y-10283729D01*
X6911286Y-10298014D01*
X6968428Y-10298014D01*
X6997000Y-10283729D01*
X7011286Y-10269443D01*
X7025571Y-10240871D01*
X7025571Y-10183729D01*
X7011286Y-10155157D01*
X6997000Y-10140871D01*
X6968428Y-10126586D01*
X7382714Y-10298014D02*
X7382714Y-9998014D01*
X7511286Y-10298014D02*
X7511286Y-10140871D01*
X7497000Y-10112300D01*
X7468428Y-10098014D01*
X7425571Y-10098014D01*
X7397000Y-10112300D01*
X7382714Y-10126586D01*
X7697000Y-10298014D02*
X7668428Y-10283729D01*
X7654143Y-10269443D01*
X7639857Y-10240871D01*
X7639857Y-10155157D01*
X7654143Y-10126586D01*
X7668428Y-10112300D01*
X7697000Y-10098014D01*
X7739857Y-10098014D01*
X7768428Y-10112300D01*
X7782714Y-10126586D01*
X7797000Y-10155157D01*
X7797000Y-10240871D01*
X7782714Y-10269443D01*
X7768428Y-10283729D01*
X7739857Y-10298014D01*
X7697000Y-10298014D01*
X7968428Y-10298014D02*
X7939857Y-10283729D01*
X7925571Y-10255157D01*
X7925571Y-9998014D01*
X8197000Y-10283729D02*
X8168428Y-10298014D01*
X8111286Y-10298014D01*
X8082714Y-10283729D01*
X8068428Y-10255157D01*
X8068428Y-10140871D01*
X8082714Y-10112300D01*
X8111286Y-10098014D01*
X8168428Y-10098014D01*
X8197000Y-10112300D01*
X8211286Y-10140871D01*
X8211286Y-10169443D01*
X8068428Y-10198014D01*
X8325571Y-10283729D02*
X8354143Y-10298014D01*
X8411286Y-10298014D01*
X8439857Y-10283729D01*
X8454143Y-10255157D01*
X8454143Y-10240871D01*
X8439857Y-10212300D01*
X8411286Y-10198014D01*
X8368428Y-10198014D01*
X8339857Y-10183729D01*
X8325571Y-10155157D01*
X8325571Y-10140871D01*
X8339857Y-10112300D01*
X8368428Y-10098014D01*
X8411286Y-10098014D01*
X8439857Y-10112300D01*
X8554143Y-10412300D02*
X8568429Y-10398014D01*
X8597000Y-10355157D01*
X8611286Y-10326586D01*
X8625571Y-10283729D01*
X8639857Y-10212300D01*
X8639857Y-10155157D01*
X8625571Y-10083729D01*
X8611286Y-10040871D01*
X8597000Y-10012300D01*
X8568429Y-9969443D01*
X8554143Y-9955157D01*
M02*
