%TF.GenerationSoftware,KiCad,Pcbnew,(5.1.6)-1*%
%TF.CreationDate,2022-10-31T22:29:44+09:00*%
%TF.ProjectId,watch,77617463-682e-46b6-9963-61645f706362,rev?*%
%TF.SameCoordinates,Original*%
%TF.FileFunction,Soldermask,Bot*%
%TF.FilePolarity,Negative*%
%FSLAX46Y46*%
G04 Gerber Fmt 4.6, Leading zero omitted, Abs format (unit mm)*
G04 Created by KiCad (PCBNEW (5.1.6)-1) date 2022-10-31 22:29:44*
%MOMM*%
%LPD*%
G01*
G04 APERTURE LIST*
%ADD10C,1.100000*%
%ADD11O,1.800000X1.800000*%
%ADD12R,1.800000X1.800000*%
%ADD13C,1.624000*%
%ADD14O,1.700000X1.700000*%
%ADD15R,1.700000X1.700000*%
%ADD16C,1.700000*%
%ADD17O,2.100000X1.800000*%
%ADD18C,1.900000*%
%ADD19R,1.900000X1.900000*%
G04 APERTURE END LIST*
D10*
%TO.C,Y1*%
X51816000Y-56896000D03*
X49916000Y-56896000D03*
%TD*%
D11*
%TO.C,J4*%
X70485000Y-66548000D03*
X67945000Y-66548000D03*
X65405000Y-66548000D03*
X62865000Y-66548000D03*
D12*
X60325000Y-66548000D03*
%TD*%
D11*
%TO.C,JP2*%
X40005000Y-58928000D03*
X37465000Y-58928000D03*
D12*
X34925000Y-58928000D03*
%TD*%
D11*
%TO.C,J3*%
X26035000Y-54610000D03*
X26035000Y-57150000D03*
X26035000Y-59690000D03*
D12*
X26035000Y-62230000D03*
%TD*%
D13*
%TO.C,U9*%
X87757000Y-24511000D03*
X87757000Y-26670000D03*
X86487000Y-28321000D03*
X84455000Y-29083000D03*
X82550000Y-28321000D03*
X81280000Y-26670000D03*
X81153000Y-24511000D03*
X82423000Y-22860000D03*
X84455000Y-22225000D03*
%TD*%
D14*
%TO.C,U6*%
X60590000Y-36072000D03*
X93610000Y-43692000D03*
X63130000Y-36072000D03*
X91070000Y-43692000D03*
X65670000Y-36072000D03*
X88530000Y-43692000D03*
X68210000Y-36072000D03*
X85990000Y-43692000D03*
X70750000Y-36072000D03*
X83450000Y-43692000D03*
X73290000Y-36072000D03*
X80910000Y-43692000D03*
X75830000Y-36072000D03*
X78370000Y-43692000D03*
X78370000Y-36072000D03*
X75830000Y-43692000D03*
X80910000Y-36072000D03*
X73290000Y-43692000D03*
X83450000Y-36072000D03*
X70750000Y-43692000D03*
X85990000Y-36072000D03*
X68210000Y-43692000D03*
X88530000Y-36072000D03*
X65670000Y-43692000D03*
X91070000Y-36072000D03*
X63130000Y-43692000D03*
X93610000Y-36072000D03*
D15*
X60590000Y-43692000D03*
%TD*%
D13*
%TO.C,U5*%
X50673000Y-24638000D03*
X50673000Y-26797000D03*
X49403000Y-28448000D03*
X47371000Y-29210000D03*
X45466000Y-28448000D03*
X44196000Y-26797000D03*
X44069000Y-24638000D03*
X45339000Y-22987000D03*
X47371000Y-22352000D03*
%TD*%
%TO.C,U11*%
X125222000Y-24511000D03*
X125222000Y-26670000D03*
X123952000Y-28321000D03*
X121920000Y-29083000D03*
X120015000Y-28321000D03*
X118745000Y-26670000D03*
X118618000Y-24511000D03*
X119888000Y-22860000D03*
X121920000Y-22225000D03*
%TD*%
%TO.C,U10*%
X109600000Y-24511000D03*
X109600000Y-26670000D03*
X108330000Y-28321000D03*
X106298000Y-29083000D03*
X104393000Y-28321000D03*
X103123000Y-26670000D03*
X102996000Y-24511000D03*
X104266000Y-22860000D03*
X106298000Y-22225000D03*
%TD*%
%TO.C,U8*%
X72412000Y-24509000D03*
X72412000Y-26668000D03*
X71142000Y-28319000D03*
X69110000Y-29081000D03*
X67205000Y-28319000D03*
X65935000Y-26668000D03*
X65808000Y-24509000D03*
X67078000Y-22858000D03*
X69110000Y-22223000D03*
%TD*%
D14*
%TO.C,U7*%
X98516000Y-36106000D03*
X131536000Y-43726000D03*
X101056000Y-36106000D03*
X128996000Y-43726000D03*
X103596000Y-36106000D03*
X126456000Y-43726000D03*
X106136000Y-36106000D03*
X123916000Y-43726000D03*
X108676000Y-36106000D03*
X121376000Y-43726000D03*
X111216000Y-36106000D03*
X118836000Y-43726000D03*
X113756000Y-36106000D03*
X116296000Y-43726000D03*
X116296000Y-36106000D03*
X113756000Y-43726000D03*
X118836000Y-36106000D03*
X111216000Y-43726000D03*
X121376000Y-36106000D03*
X108676000Y-43726000D03*
X123916000Y-36106000D03*
X106136000Y-43726000D03*
X126456000Y-36106000D03*
X103596000Y-43726000D03*
X128996000Y-36106000D03*
X101056000Y-43726000D03*
X131536000Y-36106000D03*
D15*
X98516000Y-43726000D03*
%TD*%
D13*
%TO.C,U4*%
X34671000Y-24638000D03*
X34671000Y-26797000D03*
X33401000Y-28448000D03*
X31369000Y-29210000D03*
X29464000Y-28448000D03*
X28194000Y-26797000D03*
X28067000Y-24638000D03*
X29337000Y-22987000D03*
X31369000Y-22352000D03*
%TD*%
D14*
%TO.C,U3*%
X51308000Y-67310000D03*
X43688000Y-59690000D03*
X48768000Y-67310000D03*
X46228000Y-59690000D03*
X46228000Y-67310000D03*
X48768000Y-59690000D03*
X43688000Y-67310000D03*
D15*
X51308000Y-59690000D03*
%TD*%
D14*
%TO.C,U2*%
X22946000Y-36012000D03*
X55966000Y-43632000D03*
X25486000Y-36012000D03*
X53426000Y-43632000D03*
X28026000Y-36012000D03*
X50886000Y-43632000D03*
X30566000Y-36012000D03*
X48346000Y-43632000D03*
X33106000Y-36012000D03*
X45806000Y-43632000D03*
X35646000Y-36012000D03*
X43266000Y-43632000D03*
X38186000Y-36012000D03*
X40726000Y-43632000D03*
X40726000Y-36012000D03*
X38186000Y-43632000D03*
X43266000Y-36012000D03*
X35646000Y-43632000D03*
X45806000Y-36012000D03*
X33106000Y-43632000D03*
X48346000Y-36012000D03*
X30566000Y-43632000D03*
X50886000Y-36012000D03*
X28026000Y-43632000D03*
X53426000Y-36012000D03*
X25486000Y-43632000D03*
X55966000Y-36012000D03*
D15*
X22946000Y-43632000D03*
%TD*%
D11*
%TO.C,U1*%
X124460000Y-55245000D03*
X124460000Y-57785000D03*
D12*
X124460000Y-60325000D03*
D11*
X78740000Y-67056000D03*
X104140000Y-67056000D03*
X101600000Y-67056000D03*
X91440000Y-67056000D03*
X88900000Y-67056000D03*
X109220000Y-67056000D03*
X99060000Y-67056000D03*
X86360000Y-67056000D03*
X96520000Y-67056000D03*
X116840000Y-67056000D03*
X106680000Y-67056000D03*
X93980000Y-67056000D03*
X121920000Y-67056000D03*
X111760000Y-67056000D03*
X83820000Y-67056000D03*
X119380000Y-67056000D03*
X124460000Y-67056000D03*
X114300000Y-67056000D03*
X81280000Y-67056000D03*
D12*
X76200000Y-67056000D03*
D11*
X78740000Y-48641000D03*
X104140000Y-48641000D03*
X101600000Y-48641000D03*
X91440000Y-48641000D03*
X88900000Y-48641000D03*
X109220000Y-48641000D03*
X99060000Y-48641000D03*
X86360000Y-48641000D03*
X96520000Y-48641000D03*
X116840000Y-48641000D03*
X106680000Y-48641000D03*
X93980000Y-48641000D03*
X121920000Y-48641000D03*
X111760000Y-48641000D03*
X83820000Y-48641000D03*
X119380000Y-48641000D03*
X124460000Y-48641000D03*
X114300000Y-48641000D03*
X81280000Y-48641000D03*
D12*
X76200000Y-48641000D03*
%TD*%
D14*
%TO.C,R12*%
X113792000Y-22098000D03*
D16*
X113792000Y-32258000D03*
%TD*%
D14*
%TO.C,R11*%
X98044000Y-22098000D03*
D16*
X98044000Y-32258000D03*
%TD*%
D14*
%TO.C,R10*%
X93345000Y-22098000D03*
D16*
X93345000Y-32258000D03*
%TD*%
D14*
%TO.C,R9*%
X60960000Y-22098000D03*
D16*
X60960000Y-32258000D03*
%TD*%
D14*
%TO.C,R8*%
X56134000Y-22098000D03*
D16*
X56134000Y-32258000D03*
%TD*%
D14*
%TO.C,R7*%
X39624000Y-22098000D03*
D16*
X39624000Y-32258000D03*
%TD*%
D14*
%TO.C,R6*%
X54610000Y-51308000D03*
D16*
X64770000Y-51308000D03*
%TD*%
D14*
%TO.C,R5*%
X40005000Y-46863000D03*
D16*
X29845000Y-46863000D03*
%TD*%
D14*
%TO.C,R4*%
X55118000Y-66548000D03*
D16*
X55118000Y-56388000D03*
%TD*%
D14*
%TO.C,R3*%
X40005000Y-50673000D03*
D16*
X29845000Y-50673000D03*
%TD*%
D14*
%TO.C,R2*%
X29845000Y-64008000D03*
D16*
X29845000Y-53848000D03*
%TD*%
D11*
%TO.C,JP3*%
X22225000Y-60198000D03*
X22225000Y-57658000D03*
D12*
X22225000Y-55118000D03*
%TD*%
%TO.C,JP1*%
X57404000Y-47244000D03*
D11*
X59944000Y-47244000D03*
X62484000Y-47244000D03*
%TD*%
%TO.C,J2*%
X34925000Y-54483000D03*
X37465000Y-54483000D03*
X40005000Y-54483000D03*
X42545000Y-54483000D03*
D12*
X45085000Y-54483000D03*
%TD*%
D17*
%TO.C,J1*%
X130810000Y-53126000D03*
G36*
G01*
X131595294Y-56526000D02*
X130024706Y-56526000D01*
G75*
G02*
X129760000Y-56261294I0J264706D01*
G01*
X129760000Y-54990706D01*
G75*
G02*
X130024706Y-54726000I264706J0D01*
G01*
X131595294Y-54726000D01*
G75*
G02*
X131860000Y-54990706I0J-264706D01*
G01*
X131860000Y-56261294D01*
G75*
G02*
X131595294Y-56526000I-264706J0D01*
G01*
G37*
%TD*%
D18*
%TO.C,D1*%
X24130000Y-47498000D03*
D19*
X24130000Y-50038000D03*
%TD*%
D16*
%TO.C,C6*%
X133905000Y-47244000D03*
X128905000Y-47244000D03*
%TD*%
%TO.C,C5*%
X72310000Y-46990000D03*
X67310000Y-46990000D03*
%TD*%
%TO.C,C4*%
X72310000Y-50546000D03*
X67310000Y-50546000D03*
%TD*%
%TO.C,C3*%
X47545000Y-46863000D03*
X42545000Y-46863000D03*
%TD*%
%TO.C,C2*%
X47545000Y-50673000D03*
X42545000Y-50673000D03*
%TD*%
%TO.C,C1*%
X130556000Y-29250000D03*
D15*
X130556000Y-31750000D03*
%TD*%
M02*
