M48
; DRILL file {KiCad (5.1.6)-1} date 10/31/22 22:29:49
; FORMAT={-:-/ absolute / metric / decimal}
; #@! TF.CreationDate,2022-10-31T22:29:49+09:00
; #@! TF.GenerationSoftware,Kicad,Pcbnew,(5.1.6)-1
FMAT,2
METRIC
T1C0.400
T2C0.500
T3C0.762
T4C0.800
T5C0.900
T6C1.000
%
G90
G05
T1
X32.385Y-65.913
X37.465Y-67.183
X51.435Y-51.308
X52.07Y-53.848
X52.705Y-51.308
X52.705Y-52.578
X56.515Y-60.833
X60.325Y-55.118
X60.96Y-57.023
X67.945Y-60.198
X69.85Y-58.293
X90.805Y-51.308
X111.76Y-54.483
X114.3Y-55.118
T2
X49.916Y-56.896
X51.816Y-56.896
T3
X65.808Y-24.509
X65.935Y-26.668
X67.078Y-22.858
X67.205Y-28.319
X69.11Y-22.223
X69.11Y-29.081
X71.142Y-28.319
X72.412Y-24.509
X72.412Y-26.668
X102.996Y-24.511
X103.123Y-26.67
X104.266Y-22.86
X104.393Y-28.321
X106.298Y-22.225
X106.298Y-29.083
X108.33Y-28.321
X109.6Y-24.511
X109.6Y-26.67
X81.153Y-24.511
X81.28Y-26.67
X82.423Y-22.86
X82.55Y-28.321
X84.455Y-22.225
X84.455Y-29.083
X86.487Y-28.321
X87.757Y-24.511
X87.757Y-26.67
X28.067Y-24.638
X28.194Y-26.797
X29.337Y-22.987
X29.464Y-28.448
X31.369Y-22.352
X31.369Y-29.21
X33.401Y-28.448
X34.671Y-24.638
X34.671Y-26.797
X118.618Y-24.511
X118.745Y-26.67
X119.888Y-22.86
X120.015Y-28.321
X121.92Y-22.225
X121.92Y-29.083
X123.952Y-28.321
X125.222Y-24.511
X125.222Y-26.67
X44.069Y-24.638
X44.196Y-26.797
X45.339Y-22.987
X45.466Y-28.448
X47.371Y-22.352
X47.371Y-29.21
X49.403Y-28.448
X50.673Y-24.638
X50.673Y-26.797
T4
X67.31Y-50.546
X72.31Y-50.546
X130.556Y-29.25
X130.556Y-31.75
X93.345Y-22.098
X93.345Y-32.258
X67.31Y-46.99
X72.31Y-46.99
X98.044Y-22.098
X98.044Y-32.258
X55.118Y-56.388
X55.118Y-66.548
X29.845Y-46.863
X40.005Y-46.863
X128.905Y-47.244
X133.905Y-47.244
X60.59Y-36.072
X60.59Y-43.692
X63.13Y-36.072
X63.13Y-43.692
X65.67Y-36.072
X65.67Y-43.692
X68.21Y-36.072
X68.21Y-43.692
X70.75Y-36.072
X70.75Y-43.692
X73.29Y-36.072
X73.29Y-43.692
X75.83Y-36.072
X75.83Y-43.692
X78.37Y-36.072
X78.37Y-43.692
X80.91Y-36.072
X80.91Y-43.692
X83.45Y-36.072
X83.45Y-43.692
X85.99Y-36.072
X85.99Y-43.692
X88.53Y-36.072
X88.53Y-43.692
X91.07Y-36.072
X91.07Y-43.692
X93.61Y-36.072
X93.61Y-43.692
X29.845Y-50.673
X40.005Y-50.673
X39.624Y-22.098
X39.624Y-32.258
X42.545Y-46.863
X47.545Y-46.863
X22.946Y-36.012
X22.946Y-43.632
X25.486Y-36.012
X25.486Y-43.632
X28.026Y-36.012
X28.026Y-43.632
X30.566Y-36.012
X30.566Y-43.632
X33.106Y-36.012
X33.106Y-43.632
X35.646Y-36.012
X35.646Y-43.632
X38.186Y-36.012
X38.186Y-43.632
X40.726Y-36.012
X40.726Y-43.632
X43.266Y-36.012
X43.266Y-43.632
X45.806Y-36.012
X45.806Y-43.632
X48.346Y-36.012
X48.346Y-43.632
X50.886Y-36.012
X50.886Y-43.632
X53.426Y-36.012
X53.426Y-43.632
X55.966Y-36.012
X55.966Y-43.632
X43.688Y-59.69
X43.688Y-67.31
X46.228Y-59.69
X46.228Y-67.31
X48.768Y-59.69
X48.768Y-67.31
X51.308Y-59.69
X51.308Y-67.31
X98.516Y-36.106
X98.516Y-43.726
X101.056Y-36.106
X101.056Y-43.726
X103.596Y-36.106
X103.596Y-43.726
X106.136Y-36.106
X106.136Y-43.726
X108.676Y-36.106
X108.676Y-43.726
X111.216Y-36.106
X111.216Y-43.726
X113.756Y-36.106
X113.756Y-43.726
X116.296Y-36.106
X116.296Y-43.726
X118.836Y-36.106
X118.836Y-43.726
X121.376Y-36.106
X121.376Y-43.726
X123.916Y-36.106
X123.916Y-43.726
X126.456Y-36.106
X126.456Y-43.726
X128.996Y-36.106
X128.996Y-43.726
X131.536Y-36.106
X131.536Y-43.726
X54.61Y-51.308
X64.77Y-51.308
X42.545Y-50.673
X47.545Y-50.673
X56.134Y-22.098
X56.134Y-32.258
X113.792Y-22.098
X113.792Y-32.258
X29.845Y-53.848
X29.845Y-64.008
X60.96Y-22.098
X60.96Y-32.258
T5
X24.13Y-47.498
X24.13Y-50.038
T6
X26.035Y-54.61
X26.035Y-57.15
X26.035Y-59.69
X26.035Y-62.23
X130.81Y-53.126
X130.81Y-55.626
X57.404Y-47.244
X59.944Y-47.244
X62.484Y-47.244
X34.925Y-58.928
X37.465Y-58.928
X40.005Y-58.928
X22.225Y-55.118
X22.225Y-57.658
X22.225Y-60.198
X76.2Y-48.641
X76.2Y-67.056
X78.74Y-48.641
X78.74Y-67.056
X81.28Y-48.641
X81.28Y-67.056
X83.82Y-48.641
X83.82Y-67.056
X86.36Y-48.641
X86.36Y-67.056
X88.9Y-48.641
X88.9Y-67.056
X91.44Y-48.641
X91.44Y-67.056
X93.98Y-48.641
X93.98Y-67.056
X96.52Y-48.641
X96.52Y-67.056
X99.06Y-48.641
X99.06Y-67.056
X101.6Y-48.641
X101.6Y-67.056
X104.14Y-48.641
X104.14Y-67.056
X106.68Y-48.641
X106.68Y-67.056
X109.22Y-48.641
X109.22Y-67.056
X111.76Y-48.641
X111.76Y-67.056
X114.3Y-48.641
X114.3Y-67.056
X116.84Y-48.641
X116.84Y-67.056
X119.38Y-48.641
X119.38Y-67.056
X121.92Y-48.641
X121.92Y-67.056
X124.46Y-48.641
X124.46Y-55.245
X124.46Y-57.785
X124.46Y-60.325
X124.46Y-67.056
X60.325Y-66.548
X62.865Y-66.548
X65.405Y-66.548
X67.945Y-66.548
X70.485Y-66.548
X34.925Y-54.483
X37.465Y-54.483
X40.005Y-54.483
X42.545Y-54.483
X45.085Y-54.483
T0
M30
